<svg width="102" height="41" viewBox="0 0 102 41" fill="none" xmlns="http://www.w3.org/2000/svg">
<g clip-path="url(#clip0_430_910)">
<path fill-rule="evenodd" clip-rule="evenodd" d="M0.639717 39.9783V34.3314H3.27841C5.13659 34.3314 6.33509 35.5415 6.33509 37.1682C6.33509 38.8082 5.19091 39.9783 3.27841 39.9783H0.639717ZM2.02559 35.5947V38.7007H3.2385C4.34165 38.7007 4.86828 38.0968 4.86828 37.1549C4.86828 36.254 4.27513 35.5947 3.2385 35.5947H2.02559ZM8.72322 34.3314H14.0705V35.5947H10.1102V36.4423H12.7101V37.6524H10.1102V38.7007H14.2844V39.9783H8.72322V34.3314ZM20.9422 36.039C20.6184 35.8506 20.2415 35.6622 19.9188 35.5692C19.6616 35.4883 19.2713 35.4063 18.8002 35.4063C18.5585 35.4063 18.329 35.434 18.1272 35.5282C17.9121 35.6223 17.7912 35.783 17.7912 35.9049C17.7912 35.9991 17.8045 36.2008 18.1128 36.2817C18.2757 36.3216 18.4642 36.3349 18.8811 36.3615L19.4598 36.4025C20.5242 36.4834 20.9688 36.7238 21.1572 36.859C21.6961 37.2358 21.7903 37.7455 21.7903 38.1499C21.7903 38.8625 21.4799 39.3467 21.063 39.6559C20.471 40.0858 19.6494 40.139 19.1505 40.139C18.4775 40.139 17.8866 40.0315 17.3999 39.8708C16.9819 39.7368 16.5251 39.5351 16.1204 39.2924L16.7546 38.1222C17.1038 38.3383 17.4276 38.4713 17.8045 38.5932C18.2347 38.7284 18.6804 38.8226 19.1649 38.8226C19.3268 38.8226 19.717 38.8093 19.972 38.7007C20.2415 38.5799 20.3623 38.3649 20.3623 38.1909C20.3623 38.0558 20.2825 37.7865 19.7692 37.6923C19.6749 37.679 19.4742 37.6391 18.9753 37.6114L18.2768 37.5726C17.9121 37.5449 17.3056 37.4784 16.9021 37.1826C16.5528 36.9388 16.3765 36.5897 16.3765 36.1332C16.3765 35.5415 16.6604 35.0439 17.0639 34.7215C17.5351 34.358 18.2491 34.1973 18.9753 34.1973C19.7026 34.1973 20.2692 34.3857 20.4721 34.4522C20.7936 34.5608 21.1705 34.7348 21.5475 35.004L20.9422 36.039ZM24.2982 39.9916H25.6996V34.3181H24.2982V39.9916ZM34.7243 38.7007C34.374 39.1716 33.956 39.5074 33.5791 39.709C32.9604 40.0448 32.273 40.139 31.5856 40.139C30.1998 40.139 29.4037 39.6958 28.9602 39.2658C28.5833 38.9035 28.1509 38.2574 28.1509 37.2213C28.1509 36.0933 28.6775 35.4207 29.0933 35.045C29.539 34.6406 30.3461 34.1973 31.6122 34.1973C32.5413 34.1973 33.1622 34.4522 33.4449 34.5863C33.8352 34.7746 34.252 35.0705 34.6157 35.5005L33.5114 36.295C33.323 36.0933 33.0535 35.8639 32.691 35.7032C32.2863 35.5282 31.9626 35.5005 31.6122 35.5005C31.0745 35.5005 30.6033 35.5946 30.1709 35.9448C29.8095 36.2551 29.5789 36.6983 29.5789 37.1826C29.5789 37.7056 29.8228 38.1499 30.1587 38.4181C30.4137 38.6209 30.8594 38.8348 31.6266 38.8348C32.4471 38.8348 32.946 38.5932 33.323 38.2696V37.9616H32.0302V36.8856H34.7243V38.7007ZM38.6879 36.8723V39.9783H37.3686V34.3314H38.0416L41.0439 37.4507V34.3314H42.3633V39.9783H41.6903L38.6879 36.8723ZM41.7646 2.3913C41.1393 2.15084 40.5217 1.97354 39.8909 1.85054C39.5516 1.75192 38.6968 1.41838 38.1059 0.460973C38.087 0.39227 38.0571 0.329108 38.0172 0.272595C37.9008 0.106378 37.709 0 37.4917 0C37.2533 0 37.0437 0.130757 36.9351 0.324676L36.9052 0.385622L36.9029 0.390054C36.8098 0.569568 36.2588 1.52032 34.9605 1.86162C32.7487 2.30265 30.7253 3.34649 29.0789 4.90892C26.8482 7.0254 25.5698 10.3475 25.5698 13.9245C25.5698 19.7642 28.1642 24.1069 32.7719 25.9685C33.5513 26.2788 34.3629 26.5071 35.2111 26.6522C35.8985 26.8295 36.5748 27.3126 36.9517 27.8822L36.9772 27.8833C37.0947 28.0296 37.2743 28.1227 37.4761 28.1227C37.7023 28.1227 37.8997 28.0063 38.0138 27.8312H38.0327C38.2378 27.5077 38.5083 27.2306 38.8243 27.0157C39.0483 26.8772 39.2933 26.7686 39.5538 26.6965C45.5208 25.8112 49.4423 20.9898 49.4423 14.1793C49.4423 8.37619 46.7005 4.17868 41.7646 2.3913ZM40.157 25.5297C39.4252 25.7857 38.5837 25.9319 37.597 25.9319C33.466 25.9319 30.9803 23.5595 30.1022 18.778C29.8472 17.2089 29.7008 15.7495 29.7008 14.1062C29.7008 11.1863 30.2485 8.3773 31.1632 6.40486C31.967 4.65405 33.4294 3.41297 35.3297 2.829C36.0248 2.64616 36.6823 2.53646 37.4872 2.53646C41.4353 2.53646 44.1039 5.20146 44.9454 10.0195C45.2004 11.3692 45.3113 12.7565 45.3113 14.2159C45.3113 20.3105 43.5207 24.2166 40.157 25.5297ZM68.7048 2.3913C68.0795 2.15084 67.4608 1.97354 66.8311 1.85054C66.4918 1.75192 65.6381 1.41838 65.0461 0.460973C65.0272 0.39227 64.9962 0.329108 64.9563 0.272595C64.841 0.106378 64.648 0 64.4318 0C64.1924 0 63.9839 0.130757 63.8753 0.324676L63.8453 0.385622L63.8431 0.390054C63.7489 0.569568 63.199 1.52032 61.8996 1.86162C59.6888 2.30265 57.6644 3.34649 56.0191 4.90892C53.7884 7.0254 52.5089 10.3475 52.5089 13.9245C52.5089 19.7642 55.1044 24.1069 59.711 25.9685C60.4915 26.2788 61.3031 26.5071 62.1502 26.6522C62.8386 26.8295 63.515 27.3126 63.8919 27.8822L63.9174 27.8833C64.0338 28.0296 64.2134 28.1227 64.4163 28.1227C64.6414 28.1227 64.8398 28.0063 64.9529 27.8312H64.9729C65.178 27.5077 65.4474 27.2306 65.7645 27.0157C65.9885 26.8772 66.2335 26.7686 66.494 26.6965C72.461 25.8112 76.3814 20.9898 76.3814 14.1793C76.3814 8.37619 73.6396 4.17868 68.7048 2.3913ZM67.096 25.5297C66.3643 25.7857 65.5239 25.9319 64.5372 25.9319C60.4062 25.9319 57.9194 23.5595 57.0424 18.778C56.7874 17.2089 56.641 15.7495 56.641 14.1062C56.641 11.1863 57.1887 8.3773 58.1023 6.40486C58.9072 4.65405 60.3696 3.41297 62.271 2.829C62.965 2.64616 63.6236 2.53646 64.4274 2.53646C68.3755 2.53646 71.0441 5.20146 71.8856 10.0195C72.1406 11.3692 72.2515 12.7565 72.2515 14.2159C72.2515 20.3105 70.4598 24.2166 67.096 25.5297ZM22.8413 15.9822H13.8953C13.7534 15.9822 13.6381 16.0975 13.6381 16.2382V16.6039C13.6381 16.7468 13.7534 16.861 13.8953 16.861H14.1514C15.6559 16.861 15.9852 16.9341 16.3887 17.4095C16.7546 17.8494 16.901 18.655 16.901 19.8983V20.8513C16.901 23.3024 15.8022 24.877 13.6381 25.6449C12.9784 25.8643 12.2821 25.9752 11.6225 25.9752C9.67891 25.9752 7.58902 24.9867 6.41602 23.4852C4.87604 21.5095 4.10661 18.4345 4.10661 14.0796C4.10661 7.56395 5.75635 4.05124 9.45939 2.76916C10.1557 2.5143 10.8896 2.40349 11.659 2.40349C15.524 2.40349 18.3933 5.49511 19.0729 10.3819C19.0895 10.5082 19.1993 10.6024 19.3268 10.6024H19.615C19.757 10.6024 19.8712 10.4871 19.8712 10.3453V2.69603C19.8712 2.55419 19.757 2.44005 19.615 2.44005H19.329C19.2004 2.44005 19.0917 2.53646 19.0751 2.665C18.9787 3.42959 18.8157 4.09668 18.5695 4.74492C18.5008 4.92665 18.2602 4.96654 18.1349 4.81916C16.2424 2.59186 13.943 1.52476 11.1091 1.52476C7.9937 1.52476 5.20643 2.76916 3.37265 4.96543C1.24617 7.49192 0 11.1154 0 14.6647C0 21.6923 4.65652 26.8539 10.9983 26.8539C12.7943 26.8539 14.005 26.5968 16.0949 25.6815C17.452 25.133 18.5518 24.8393 19.3578 24.8393C19.5142 24.8393 19.6306 24.8393 19.7636 24.8571C19.9188 24.8759 20.0552 24.7573 20.0552 24.6033V22.314C20.0552 19.0938 20.0918 18.4711 20.4211 17.7763C20.7515 17.0804 21.4111 16.861 22.8413 16.861C22.9833 16.861 23.0975 16.7468 23.0975 16.605V16.2393C23.0975 16.0975 22.9833 15.9822 22.8413 15.9822ZM96.8423 3.54927C94.8622 2.2683 92.2967 1.68211 88.6668 1.68211C87.4938 1.68211 86.1734 1.71868 83.6444 1.86495C81.8783 1.99792 80.8394 2.04003 79.5367 2.10208C79.3116 2.11316 79.1343 2.29822 79.1343 2.52316V2.542C79.1343 2.7747 79.3227 2.96308 79.5556 2.96308H79.7208C81.2618 2.96308 81.6277 3.03622 81.9936 3.5127C82.4337 4.09778 82.5069 4.72054 82.5069 8.23324V20.0191C82.5069 23.3135 82.4703 23.8997 82.141 24.5956C81.8472 25.2903 81.2242 25.5098 79.8682 25.5098H79.4469C79.2141 25.5098 79.0245 25.6981 79.0245 25.9308C79.0245 26.1635 79.213 26.3519 79.4458 26.3519H88.8863C92.2601 26.3519 92.626 26.3154 94.2025 25.912C97.6495 25.0344 100.032 22.8381 101.095 19.4706C101.645 17.8605 101.902 16.1396 101.902 14.3467C101.902 9.51532 100.105 5.70897 96.8423 3.54927ZM90.7201 25.4732C90.3166 25.5098 89.8398 25.5098 89.3265 25.5098C87.4195 25.5098 86.7965 25.2903 86.4295 24.5945C86.0636 23.8265 86.027 23.3866 86.027 18.9586V3.03843C86.027 2.81238 86.2055 2.62732 86.4317 2.61735C87.1978 2.58743 87.8475 2.56084 88.6302 2.56084C91.453 2.56084 92.993 3.03732 94.5695 4.39032C96.7326 6.33062 97.9788 9.9907 97.9788 14.6403C97.9788 21.3377 95.4132 25.1806 90.7201 25.4732ZM54.805 39.7146C53.9425 40.508 53.0145 40.6687 52.3005 40.6687C51.6685 40.6687 50.8858 40.5468 50.2805 39.9695C50.0521 39.7545 49.5665 39.2026 49.5665 38.222C49.5665 37.6169 49.7682 37.0917 50.1585 36.6363C50.4556 36.2861 50.9002 35.9492 51.4523 35.7487L49.3913 33.3552H54.4957L55.3306 34.6738H52.367L54.9525 37.6989C55.2097 37.4552 55.4392 37.187 55.6532 36.8911L56.5435 38.0336C56.3406 38.2885 56.1133 38.5433 55.8561 38.8137L57.2708 40.4271H55.4403L54.805 39.7146ZM52.2595 36.7305C52.1397 36.7692 51.7617 36.931 51.4523 37.2546C51.1153 37.6036 51.0355 37.9527 51.0355 38.2076C51.0355 38.5311 51.1829 38.8004 51.357 38.9611C51.5732 39.1628 51.9635 39.2979 52.3282 39.2979C52.907 39.2979 53.499 39.0143 53.9292 38.6785L52.2595 36.7305ZM69.0972 34.5342C69.4886 34.5342 70.0252 34.5475 70.431 34.8445C70.727 35.0583 70.9676 35.4484 70.9676 35.9725C70.9676 36.2828 70.8867 36.7537 70.4443 37.0751C70.5906 37.1427 70.8612 37.2912 71.0763 37.5992C71.2647 37.8818 71.3313 38.1643 71.3313 38.4602C71.3313 38.8769 71.2381 39.3877 70.7802 39.7645C70.2946 40.1545 69.6771 40.1678 69.258 40.1678H65.6902V34.5342H69.0972ZM68.9897 36.5775C69.1117 36.5775 69.2724 36.5775 69.3933 36.4833C69.4332 36.4435 69.5407 36.336 69.5407 36.1343C69.5407 35.9869 69.4886 35.8794 69.3678 35.8118C69.2447 35.7442 69.0972 35.7442 68.962 35.7442H67.0905V36.5775H68.9897ZM69.1638 38.8902C69.3389 38.8902 69.5407 38.8902 69.7026 38.7827C69.8101 38.7018 69.9044 38.5677 69.9044 38.3117C69.9044 38.1511 69.8656 37.976 69.6638 37.8685C69.5962 37.8286 69.462 37.7876 69.1105 37.7876H67.0905V38.8902H69.1638ZM80.0622 38.2851C80.0622 38.7162 79.9957 39.2802 79.5101 39.7246C79.2817 39.9384 78.703 40.3285 77.2362 40.3285C75.6596 40.3285 75.0798 39.8852 74.9046 39.7246C74.4201 39.2802 74.3669 38.7295 74.3669 38.2862V34.5342H75.7527V37.8408C75.7527 38.1233 75.7672 38.5134 76.0632 38.755C76.3071 38.9578 76.8304 38.9988 77.2073 38.9988C78.03 38.9988 78.2584 38.8359 78.3526 38.7694C78.6475 38.5278 78.6631 38.1776 78.6631 37.9095V34.5342H80.0622V38.2851ZM83.456 40.18H84.8551V34.5076H83.456V40.18ZM88.2256 34.5209H89.6114V38.837H93.3023V40.1678H88.2256V34.5209ZM95.8113 40.1678V34.5209H98.45C100.309 34.5209 101.507 35.7309 101.507 37.3576C101.507 38.9976 100.361 40.1678 98.45 40.1678H95.8113ZM97.1971 35.7841V38.8902H98.41C99.5154 38.8902 100.04 38.2862 100.04 37.3443C100.04 36.4435 99.4478 35.7841 98.41 35.7841H97.1971Z" fill="#464947"/>
</g>
<defs>
<clipPath id="clip0_430_910">
<rect width="102" height="41" fill="white"/>
</clipPath>
</defs>
</svg>
