<svg width="50" height="50" viewBox="0 0 50 50" fill="none" xmlns="http://www.w3.org/2000/svg">
<path fill-rule="evenodd" clip-rule="evenodd" d="M0.207001 35.4837C0.197001 35.7267 0.596999 36.8267 0.813999 37.0957C1.151 37.5097 1.537 37.8777 1.966 38.1897C2.559 38.6207 3.356 38.7977 4.259 38.8567C3.29 40.1177 2.953 41.6287 3.115 43.1267C3.163 43.5687 3.269 43.9987 3.436 44.4127C3.574 44.7537 4.278 46.0087 4.821 46.1737C3.733 44.6187 3.86 43.0297 3.901 42.6097C3.985 41.7217 4.262 40.8907 4.665 40.0997C4.949 39.5447 5.368 39.0267 5.965 38.7257C5.923 38.7907 5.254 39.7087 5.082 40.1637C4.938 40.5387 4.712 41.1597 4.682 41.5547C4.682 41.5737 4.68 41.5917 4.678 41.6087C4.672 41.6437 4.668 41.6787 4.664 41.7147C4.655 41.8157 4.651 41.9297 4.646 42.0517C4.635 42.2137 4.626 42.3757 4.619 42.5367C4.602 42.7317 4.572 42.9297 4.515 43.1167C4.384 43.5497 4.182 43.9577 4.403 44.4227C4.492 44.6077 4.75 45.0057 4.731 45.2897C4.72 45.4527 5.056 45.1957 4.978 44.8717C5.435 45.0187 5.981 44.9217 6.148 44.4147C6.243 44.1247 5.481 44.7217 4.985 44.1447C4.718 43.8317 5.201 43.3197 4.998 42.4047C4.935 42.1227 4.922 41.8337 4.935 41.5707C4.945 41.4777 4.961 41.3257 5.004 41.1177C5.048 40.9547 5.181 40.5097 5.227 40.3487C5.311 40.0727 5.439 39.8037 5.577 39.5637C5.66 39.4277 5.816 39.2147 5.86 39.1287L5.888 39.0817C6.014 38.9067 6.123 38.7747 6.183 38.7067L6.38 38.4597C6.612 38.2557 6.886 38.1017 7.203 37.9937C7.78 37.7967 8.853 37.6817 9.527 37.7797C9.319 37.4897 8.149 37.1927 7.548 37.3297C7.472 37.3467 7.396 37.3637 7.311 37.3657C7.361 37.3387 7.411 37.3077 7.462 37.2847C8.212 36.9487 9.002 36.7857 9.822 36.7477C9.879 36.7447 11.09 36.6197 11.09 36.6197C10.56 36.5397 8.978 36.5637 8.308 36.7317C9.058 36.4067 9.818 36.2207 10.621 36.0907C10.538 35.9857 9.727 36.1497 9.413 36.2247C9.087 36.3027 8.765 36.3997 8.4 36.4987C8.465 36.4427 8.497 36.4067 8.535 36.3827C9.125 36.0007 9.711 35.6127 10.306 35.2387C11.056 34.7667 11.253 34.5067 12.208 34.2617C12.793 34.1117 13.44 33.9987 13.996 34.1007C13.806 33.9477 13.258 33.7927 12.725 33.9077C13.497 33.4677 14.2 33.3877 14.7 33.7197C14.837 33.8107 15.159 33.8527 15.234 33.7197C15.445 33.3427 14.877 33.3057 14.759 33.2627C14.934 33.2277 15.062 33.1987 15.193 33.1777C15.689 33.0987 16.559 32.9937 17.3 33.2647C16.789 32.9027 15.577 32.8617 14.973 32.9547C14.619 33.0077 13.756 33.2277 13.726 33.2047C14.194 32.9067 14.676 32.6527 15.244 32.4847C15.107 32.3997 14.238 32.6227 13.929 32.7747C13.581 32.9467 13.239 33.1267 12.893 33.3027C12.838 33.3307 12.779 33.3497 12.675 33.3927C12.921 33.0457 13.125 32.7327 13.235 32.3727C13.223 32.3647 12.675 33.1417 12.387 33.4047C11.753 33.9847 10.222 35.0017 9.932 35.1277C9.983 35.0577 10.595 34.2057 10.845 33.7977C11.132 33.3247 11.975 32.5597 12.032 32.5277C11.892 32.4767 11.072 33.0387 10.819 33.3767C10.761 33.4547 9.398 35.3067 8.826 35.7207C8.745 35.7787 8.663 35.8357 8.564 35.8807C9.167 34.9457 9.612 33.9307 10.172 32.9147C10.096 32.9517 9.898 33.1507 9.843 33.2417C9.513 33.7867 9.158 34.3177 8.855 34.8787C8.18 36.1267 7.353 36.7537 7.26 36.7687C7.307 36.7207 7.351 36.6697 7.4 36.6237C7.853 36.1937 8.203 35.6947 8.454 35.1227C8.704 34.5527 8.965 33.9867 9.24 33.4287C9.474 32.9527 10.165 32.0987 10.192 32.0477C10.017 32.1087 9.314 32.8957 9.122 33.2197C8.778 33.7977 8.467 34.5917 8.16 34.9927C8.095 35.0767 7.847 35.2787 7.847 35.2787C7.667 35.4267 7.064 35.8687 6.407 36.0897C6.02 36.1647 5.629 36.2127 5.232 36.2217C4.944 36.2157 4.627 36.1847 4.322 36.1117C3.335 35.8727 2.738 36.2637 2.416 36.0087C1.82 35.5357 2.531 34.9037 2.206 34.9687C1.638 35.0827 1.491 35.5557 1.618 35.9677C1.269 35.8777 0.962998 36.1567 1.142 36.1577C1.454 36.1587 1.872 36.4117 2.068 36.5017C2.56 36.7267 3.023 36.5757 3.507 36.4887C3.716 36.4517 3.935 36.4387 4.15 36.4357C4.328 36.4407 4.505 36.4427 4.684 36.4437C4.817 36.4477 4.943 36.4507 5.054 36.4497C5.094 36.4497 5.134 36.4477 5.171 36.4447H5.231C5.565 36.4447 5.896 36.4087 6.223 36.3457L6.209 36.3687C6.865 36.2137 7.459 35.9497 7.911 35.5577C7.77 35.7977 7.353 36.4197 6.911 36.6987C6.151 37.1807 5.587 37.4417 4.817 37.6177C3.937 37.8177 3.09 37.7007 2.253 37.4247C1.773 37.2667 1.373 36.9747 1.03 36.6087C0.876999 36.4467 0.336001 35.6987 0.207001 35.4837ZM5.772 46.9087C6.197 47.3757 7.792 47.5917 8.512 47.5267C9.632 47.4267 10.589 46.9977 11.302 46.0987C11.668 45.6387 11.953 45.1367 12.124 44.5767C12.318 43.9407 12.494 43.2997 12.679 42.6607C12.859 42.0427 13.041 41.4237 13.339 40.8497C13.662 40.2227 14.051 39.6387 14.575 39.1577C14.749 38.9977 14.951 38.8707 15.145 38.7357C15.401 38.5597 15.385 38.1577 15.115 38.0097C14.945 37.9177 14.775 37.9107 14.595 37.9677C14.227 38.0847 13.898 38.2737 13.595 38.5077C13.426 38.6397 13.264 38.7787 13.098 38.9157C13.544 37.8317 14.335 37.0657 15.346 36.4987C13.746 36.7557 12.902 38.0357 12.56 39.0977C12.477 39.3547 12.407 39.6147 12.326 39.8927C12.18 39.0147 12.738 37.7107 12.881 37.2557C12.577 37.6477 12.215 38.5337 12.115 39.0497C12.008 39.6037 11.93 42.0037 11.635 42.9797C11.794 41.5347 11.748 40.9127 11.794 39.6467C11.645 40.2887 11.521 43.6807 11.053 44.7797C11.135 44.0537 11.498 41.6597 11.158 40.0317C11.128 40.5927 11.148 41.1167 11.041 41.5787C10.986 41.8147 10.705 42.4887 10.705 42.4887C10.648 42.6687 10.18 43.3637 9.859 43.7667C9.74 43.9167 9.574 44.0217 9.419 44.1367C9.196 44.2897 8.933 44.4367 8.65 44.5407C7.734 44.8777 7.545 45.5297 7.124 45.4907C6.345 45.4177 6.456 44.5017 6.252 44.7337C5.896 45.1377 6.108 45.6137 6.487 45.8897C6.16 46.0037 6.117 46.4047 6.254 46.3077C6.494 46.1397 6.985 46.1247 7.197 46.0937C7.727 46.0137 7.977 45.6367 8.286 45.3007C8.42 45.1547 8.579 45.0247 8.741 44.9057C8.88 44.8137 9.017 44.7187 9.153 44.6227C9.258 44.5527 9.357 44.4877 9.44 44.4257C9.471 44.4037 9.5 44.3807 9.526 44.3577C9.542 44.3477 9.556 44.3367 9.571 44.3257C9.718 44.2207 9.895 44.0847 9.984 43.9857C10.307 43.6217 10.924 42.6407 10.999 42.3257C10.659 44.9577 9.938 46.0967 9.024 46.5857C8.182 47.0337 6.639 47.2217 5.772 46.9087ZM5.99 29.6387C5.868 29.6747 5.722 29.7187 5.56 29.7697L5.53 29.7767C5.259 29.8467 5 29.9397 4.752 30.0497C4.129 30.2837 3.44 30.6117 3.073 30.9067C2.878 31.0647 2.356 31.6767 2.386 31.6367C2.375 31.6517 2.365 31.6667 2.354 31.6797C2.33 31.7067 2.307 31.7337 2.284 31.7627C2.223 31.8427 2.158 31.9357 2.089 32.0357C1.993 32.1657 1.899 32.2967 1.808 32.4297C1.688 32.5847 1.556 32.7367 1.404 32.8697C1.054 33.1777 0.649001 33.4357 0.609001 33.9127C0.593001 34.1027 0.621999 34.5387 0.453999 34.7667C0.357999 34.8987 0.805999 34.8207 0.903999 34.5197C1.251 34.8267 1.809 34.9677 2.233 34.6127C2.475 34.4097 1.451 34.5977 1.297 33.9167C1.214 33.5477 1.933 33.3167 2.228 32.4727C2.32 32.2127 2.461 31.9657 2.612 31.7527C2.876 31.4177 3.191 31.1167 3.535 30.8387C4.088 30.4537 4.774 30.1257 5.005 30.0787L5.211 29.9957C5.808 29.8357 6.39 29.5927 6.984 29.6537C7.264 29.6827 8.109 29.9467 8.339 30.0937C8.654 30.2947 8.96 30.5087 9.275 30.7077C9.426 30.8037 9.84 30.9817 9.893 30.9937C9.886 30.9697 8.726 30.0127 8.071 29.6477C7.707 29.4447 7.315 29.3387 6.854 29.3097C7.179 29.1997 7.46 29.2457 7.738 29.2957C8.105 29.3627 8.431 29.5297 8.744 29.7217C9.12 29.9517 9.917 30.6877 9.95 30.7017C9.98 30.5677 9.421 29.9817 9.208 29.7817C9.146 29.7237 9.072 29.6777 9.009 29.6147C9.397 29.7067 9.725 29.9547 10.117 30.0407C9.667 29.5657 9.057 29.3847 8.477 29.1207C8.529 29.1147 8.58 29.1077 8.631 29.1057C9.199 29.0787 9.767 28.9887 10.333 29.0257C11.194 29.0817 12.882 29.7657 12.895 29.7507C12.685 29.5207 11.638 29.1137 11.321 28.9787C12.271 28.8807 13.419 28.9987 13.876 29.1507C14.836 29.4667 15.569 29.9027 16.06 30.7837C16.08 30.3807 15.642 29.8737 15.234 29.4787C15.831 29.6937 16.804 30.4147 16.978 30.5587C17.243 30.7807 17.638 31.5487 17.754 31.8747C17.737 31.7267 17.674 31.2987 17.534 31.0377C18.14 31.1967 18.094 31.4227 18.318 31.8127C18.442 32.0297 18.926 32.2857 19.046 31.8667C19.232 31.2167 18.696 30.9697 18.233 30.6687C17.664 30.2977 16.891 29.8067 16.108 29.6037C16.691 29.6137 16.885 29.5537 17.089 29.4837C16.622 29.4767 16.155 29.4377 15.693 29.3647C15.943 29.3447 16.954 29.1607 17.181 29.0277C16.413 28.9917 15.671 29.0247 14.908 28.9337C14.513 28.8857 14.113 28.8297 13.753 28.6587C14.479 28.4347 15.25 28.3567 16.006 28.4287C15.306 28.1767 14.533 28.2687 13.799 28.3887C13.342 28.4617 12.668 28.6887 11.283 28.5637C11.883 28.1057 12.309 27.9517 12.588 27.5927C12.579 27.5817 10.828 28.6207 9.865 28.6057C11.147 28.1237 12.408 27.3597 12.895 26.8467C11.51 27.6607 10.346 28.1117 10.189 28.1667C9.425 28.4337 8.639 28.5887 7.832 28.6427C7.452 28.6687 7.072 28.6967 6.692 28.7127C6.53 28.7197 6.366 28.6977 6.204 28.6707C7.034 28.5397 7.837 28.3287 8.619 28.0367C9.221 27.8117 10.59 27.1177 11.225 26.3897C10.559 26.9787 9.032 27.6187 8.376 27.8187C8.043 27.9197 7.197 28.0607 6.713 28.0347C6.313 27.9817 5.879 27.8907 5.495 27.7337C5.445 27.7117 4.295 27.1787 4.083 27.0407C3.8 26.8397 3.509 26.5907 3.262 26.3027C2.464 25.3707 1.567 25.3947 1.444 24.8957C1.216 23.9707 2.412 23.7587 2.038 23.6097C1.384 23.3487 0.872 23.7697 0.681 24.3087C0.403 23.9727 -0.116999 24.0707 0.0610008 24.1947C0.370001 24.4077 0.589 24.9697 0.716 25.2017C1.032 25.7837 1.609 25.9317 2.159 26.1637C2.396 26.2647 2.625 26.3987 2.839 26.5417C3.013 26.6687 3.189 26.7917 3.365 26.9137C3.495 27.0087 3.618 27.0977 3.729 27.1717C3.77 27.1987 3.81 27.2217 3.85 27.2447L3.91 27.2847C4.09 27.4077 4.276 27.5177 4.47 27.6177L4.468 27.6187L4.49 27.6287C4.757 27.7647 5.55 28.0337 5.657 28.0577L5.7 28.0677C5.707 28.0677 5.714 28.0707 5.721 28.0717L5.794 28.0877C5.958 28.1397 6.128 28.1787 6.306 28.1977C4.555 28.6777 2.455 27.5447 2.291 27.4457C1.508 26.9707 0.225 25.1747 0 24.7757C0.123 25.8527 0.854001 26.8877 1.144 27.3487C1.486 27.8887 2.561 28.9257 3.533 29.2487C2.561 29.7057 1.597 30.6207 1.143 31.3287C0.555002 32.2457 0.213001 33.1177 0.186001 33.4437C0.872001 32.4057 1.678 31.5157 2.566 30.8817C3.377 30.3017 4.273 29.9137 5.246 29.6987C5.489 29.6457 5.738 29.6197 5.99 29.6387ZM0.450001 22.1987C0.793001 22.0607 1.101 21.5607 1.264 21.3627C1.672 20.8657 2.274 20.8557 2.861 20.7567C3.115 20.7127 3.365 20.6347 3.603 20.5457C3.796 20.4617 3.991 20.3817 4.188 20.3037C4.306 20.2527 5.164 19.8437 6.222 19.7237C6.007 19.6907 5.792 19.6617 5.575 19.6387C4.885 19.5637 4.201 19.6077 3.532 19.8357C2.795 20.0867 1.616 20.5457 0.0480003 21.9637C0.182 21.4967 0.369999 21.0437 0.640999 20.7137C1.723 19.4007 3.139 18.6587 4.779 18.2947C5.407 18.1547 6.367 18.0797 7.159 18.3077C7.104 18.2587 6.834 18.0747 6.777 18.0277C6.16 17.5077 5.594 16.9407 5.142 16.2697C4.505 15.3247 4.064 14.2997 3.904 13.1657C3.77 12.2177 3.821 11.2827 4.151 10.3727C4.269 10.0477 4.652 9.37469 4.903 9.12569C4.622 9.63969 4.455 10.2627 4.389 10.6887C4.184 12.0097 4.379 13.2527 5.139 14.3827C5.52 14.9487 5.952 15.6027 6.299 15.9437C6.679 16.3187 7.321 16.7187 8.047 17.1697C8.76 17.6127 10.409 18.0647 10.521 18.0797V18.0767C10.071 17.8797 7.934 17.0537 7.009 14.6607C6.926 14.4447 6.812 14.2417 6.719 14.0307C6.594 13.7817 6.452 13.5337 6.282 13.3147C5.888 12.8067 5.417 12.3647 5.45 11.6417C5.463 11.3517 5.577 10.6977 5.403 10.3317C5.303 10.1217 5.861 10.2947 5.933 10.7617C6.431 10.3417 7.167 10.1997 7.646 10.7887C7.919 11.1257 6.645 10.7127 6.329 11.7217C6.158 12.2677 7.035 12.7067 7.264 14.0177C7.334 14.4237 7.471 14.8137 7.627 15.1537C7.819 15.7437 8.361 16.5187 9.135 17.1017C9.228 17.1547 9.318 17.2057 9.361 17.2337C10.063 17.6827 10.761 18.0457 11.891 18.2107C12.987 18.3717 14.104 18.3007 15.193 18.5147C15.593 18.5937 16.61 18.8757 17.134 19.4127C16.799 19.2077 16.446 19.0977 16.082 19.0137C15.257 18.8257 14.415 18.7577 13.574 18.7107C12.942 18.6747 12.309 18.6627 11.676 18.6477C10.825 18.6277 9.473 18.3307 9.101 18.1377C9.33 18.4527 10.389 18.7637 11.381 18.9517C11.959 19.0617 14.439 19.2237 14.751 19.4217C14.354 19.4607 13.441 19.3317 12.831 19.2997C12.011 19.2557 11.381 19.2147 10.263 18.9337C10.319 18.9817 10.343 19.0077 10.371 19.0257C11.077 19.4677 11.782 19.9097 12.489 20.3477C12.555 20.3887 12.631 20.4247 12.706 20.4377C13.025 20.4937 13.344 20.5257 13.671 20.5037C14.022 20.4807 14.903 20.5107 14.991 20.5257C14.533 20.5707 14.082 20.6067 13.595 20.7007C13.653 20.7267 15.294 20.9007 16.098 21.0057C16.524 21.0617 17.562 21.3107 17.648 21.4357C16.44 21.1517 15.244 21.1557 14.046 21.1127C14.421 21.3317 14.796 21.5397 15.184 21.7207C15.661 21.9427 16.171 22.0697 16.679 22.2007C17.365 22.3777 18.353 22.7307 18.773 23.2487C18.007 22.7907 17.246 22.5877 16.453 22.4547C16.486 22.4987 16.499 22.5217 16.519 22.5407C16.669 22.6757 16.824 22.8057 16.962 22.9537C17.372 23.3957 17.792 23.8227 18.328 24.1117L19.752 24.8917C20.186 25.1317 20.616 25.4977 20.793 25.8087C20.196 25.2937 19.48 25.0047 18.758 24.7187C18.792 24.7857 18.834 24.8397 18.882 24.8887C19.924 25.9397 21.182 27.3647 21.51 28.4117C21.563 28.5777 21.678 29.0047 21.537 29.1087C21.126 29.4117 20.796 28.8747 20.715 28.7547C20.171 27.9447 19.406 26.5017 18.633 25.4507C18.608 25.4157 18.573 25.3887 18.543 25.3587C18.938 26.2757 19.104 27.2427 19.316 28.2007C18.952 27.8497 18.576 26.1457 17.964 24.8327C17.814 24.5097 17.043 23.5467 16.991 23.4857C17.15 24.1497 17.411 24.7787 17.391 25.4937C17.355 25.4607 16.901 23.9697 16.617 23.4727C16.211 22.7607 15.58 22.1557 14.732 21.9897C15.078 22.2657 15.29 22.5617 15.452 23.1497C15.112 22.5107 14.057 21.7407 13.713 21.6197C13.761 21.6797 13.821 21.7267 13.875 21.7797C13.992 21.8947 14.121 22.0027 14.219 22.1337C14.646 22.7007 14.943 23.3307 15.111 24.0217C15.175 24.2847 15.341 24.8627 15.346 24.9187C15.216 24.8427 14.988 24.3677 14.933 24.2277C14.733 23.7127 14.491 23.2187 14.223 22.7357C13.848 22.0577 13.263 21.6077 12.608 21.2297C12.557 21.2007 12.496 21.1877 12.403 21.1537C12.441 21.2227 12.861 21.9847 12.958 22.3767C13.046 22.7247 13.094 23.4727 12.912 23.6537C12.957 23.0107 12.682 22.3567 12.464 21.8997C12.34 21.6397 12.182 21.4017 11.97 21.2017C11.649 20.8987 11.266 20.7137 10.84 20.6067C10.875 20.6567 11.529 21.2977 11.742 21.6417C11.893 21.8877 12.041 22.3377 12.062 22.6207C12.003 22.2977 11.617 21.7187 11.394 21.4637C10.965 20.9737 10.467 20.5667 9.889 20.2607C9.542 20.0777 8.659 19.8967 8.597 19.8857C8.677 19.9407 8.763 19.9757 8.849 20.0087C9.356 20.1987 9.832 20.4427 10.279 20.7487C10.916 21.1867 11.689 22.1887 11.73 23.0227C11.537 22.2867 10.677 21.5307 10.263 21.1627C9.883 20.8237 9.011 20.4507 8.624 20.3017L8.476 20.2667C8.168 20.1767 7.142 19.9317 6.242 20.0137C5.792 20.0877 5.352 20.1937 4.927 20.3467C4.612 20.4787 4.281 20.6537 3.988 20.8797C3.042 21.6067 2.148 21.3727 1.946 21.8347C1.572 22.6887 2.737 23.1767 2.34 23.2357C1.644 23.3387 1.197 22.8057 1.09 22.2317C0.758 22.4957 0.252001 22.2777 0.450001 22.1987ZM7.531 8.96869C7.301 9.57869 7.423 10.3237 8.153 10.5837C8.57 10.7337 7.731 9.66069 8.586 9.02969C9.048 8.68869 9.774 9.37669 11.106 9.16269C11.519 9.09669 11.939 9.09869 12.319 9.13469C12.932 9.22169 13.544 9.35269 14.109 9.61069C14.742 9.90069 15.88 10.7357 16.083 10.9907C16.491 11.5037 17.234 12.7787 17.237 13.3417C17.243 14.3007 17.079 16.5877 17.473 17.2297C17.461 16.6297 17.593 16.2027 17.67 15.7517C17.762 15.2237 17.777 14.1047 17.92 13.7027C18.134 14.5437 18.285 16.2187 18.291 16.1827C18.337 15.9377 18.399 15.6927 18.41 15.4457C18.432 14.8857 18.362 14.3317 18.266 13.7817C18.223 13.5367 18.174 13.2917 18.119 12.9977C18.168 13.0757 18.194 13.1077 18.211 13.1447C18.626 14.0437 18.998 14.9587 19.17 15.9377C19.253 16.4077 19.3 16.8877 19.324 17.3637C19.348 17.8637 19.292 19.2067 19.441 19.5937C19.481 19.1227 19.478 18.7117 19.517 18.2717C19.627 16.9967 19.488 15.5537 19.063 14.3817C19.667 15.2317 20.091 16.1247 20.509 16.9647C20.749 17.4477 20.903 17.9477 20.958 18.4777C21.006 18.9537 21.031 20.8717 21.025 21.0947C21.144 20.7677 21.255 19.7997 21.281 19.4257C21.395 19.7927 21.472 21.3157 21.438 21.7907C21.736 21.2147 21.5 20.3977 21.592 20.0937C21.619 20.1347 22.337 22.1877 22.58 23.2107C22.664 23.5657 22.746 23.9227 22.795 24.2837C22.821 24.4767 22.864 25.4437 22.864 25.4437C22.864 25.4437 22.979 24.9547 23.01 24.8137C23.042 24.8837 23.14 25.7647 23.464 25.8477C23.598 25.8807 23.779 25.7317 23.839 25.6127C24.031 25.2327 23.333 23.7147 23.159 23.3077C22.991 22.9197 22.639 22.1217 22.528 21.5617C22.815 21.8517 23.07 22.2297 23.49 22.3917C22.965 21.8477 22.282 20.9137 22.272 20.8587C22.796 21.1967 23.526 21.7397 23.839 21.9437C23.544 21.4777 22.414 20.5147 22.212 20.3227C22.137 20.2517 22.072 20.1547 22.04 20.0577C21.918 19.6837 21.685 18.8627 21.672 18.8017C21.755 18.8817 23.583 20.3397 23.839 20.4177C23.825 20.3357 22.719 19.2977 22.444 19.0257C21.932 18.5207 21.43 17.8847 21.25 17.1307C21.404 17.2767 22.306 17.7237 22.961 18.4017C22.331 17.4277 21.195 16.3517 20.823 15.7217C20.503 15.1427 20.282 14.5237 20.069 13.8997C20.049 13.8407 20.042 13.7777 20.051 13.7077C20.08 13.7477 20.111 13.7857 20.135 13.8277C20.405 14.2957 20.73 14.7217 21.085 15.1277C21.722 15.8557 22.368 16.5777 22.985 17.3217C23.503 17.9457 24.128 18.9747 24.208 19.1287C24.168 18.8817 23.674 17.7557 23.237 17.1427C22.621 16.2787 21.942 15.4627 21.257 14.6527C21.113 14.4837 20.977 14.3087 20.851 14.1197C21.131 14.2637 21.355 14.5097 21.698 14.5497L21.532 14.3957C21.209 14.0907 20.879 13.7917 20.565 13.4777C20.16 13.0717 19.856 12.5937 19.64 12.0667C19.44 11.5767 19.244 11.0837 19.075 10.5827C18.973 10.2797 18.853 9.57569 18.876 9.53369C18.891 9.56869 19.561 11.1197 20.058 11.7667C20.621 12.4987 21.268 13.1517 22.015 13.6917C22.477 14.0267 22.909 14.3857 23.318 14.8077C22.962 14.0207 21.832 13.0777 21.444 12.6447C21.191 12.3627 20.685 11.6587 20.644 11.5887C20.692 11.6007 21.657 12.2557 22.12 12.5807C22.748 13.0237 23.907 13.8427 24.56 15.1077C24.282 13.6897 23.046 12.6427 22.471 12.1437C22.119 11.8387 21.764 11.5357 21.405 11.2387C21.04 10.9357 20.756 10.5807 20.565 10.1417C20.317 9.56769 20.111 8.98369 19.991 8.37069C19.862 7.71469 19.949 7.07269 20.127 6.44069C20.314 5.77469 20.557 5.12969 20.902 4.53069C21.104 4.21469 21.357 3.88669 21.66 3.60669C22.639 2.69969 22.529 1.72869 23.081 1.57269C24.104 1.28469 24.452 2.57269 24.586 2.16069C24.821 1.44069 24.299 0.903692 23.673 0.719692C24.026 0.403692 23.868 -0.157308 23.746 0.0416919C23.533 0.386692 22.92 0.648692 22.669 0.796692C22.041 1.16469 21.928 1.79769 21.715 2.40369C21.623 2.66569 21.493 2.91969 21.351 3.15969C21.225 3.35269 21.101 3.54869 20.981 3.74569C20.885 3.89069 20.796 4.02769 20.722 4.15269C20.696 4.19769 20.672 4.24169 20.651 4.28569L20.611 4.35169C20.316 4.83669 20.105 5.36169 19.955 5.91069C19.779 6.55069 19.677 7.19869 19.734 7.86169C19.792 8.54769 20.194 9.97469 20.211 10.0417C18.926 9.16469 18.891 6.68169 19.033 5.44769C19.275 3.34369 20.331 1.90369 22.163 0.403692C20.46 1.30169 19.573 2.12369 19.003 2.88569C17.478 4.92969 16.874 7.19069 18.364 11.6227C17.799 10.6427 16.785 9.55969 15.797 8.87369C14.141 7.72369 11.164 6.80969 8.842 6.96569C7.918 7.02769 6.81 7.41969 6.169 7.83569C7.091 7.56369 7.729 7.46569 8.371 7.41569C9.584 7.31769 10.766 7.44269 11.924 7.81569C13.601 8.35569 15.067 9.20669 16.17 10.6147C16.325 10.8127 16.482 11.0487 16.627 11.3097C16.125 10.7457 14.837 9.78569 14.148 9.41969C13.381 9.01269 12.276 8.82069 11.632 8.71069C11.458 8.68069 11.163 8.66069 10.929 8.64169C10.648 8.60569 10.362 8.55169 10.092 8.46169C9.469 8.25569 8.884 7.95369 8.202 8.22269C7.931 8.32969 7.345 8.65269 6.935 8.60769C6.698 8.58169 7.06 9.05269 7.531 8.96869ZM48.971 36.6087C48.627 36.9747 48.227 37.2667 47.747 37.4247C46.91 37.7007 46.063 37.8177 45.183 37.6177C44.413 37.4417 43.849 37.1807 43.088 36.6987C42.647 36.4187 42.23 35.7987 42.089 35.5577C42.542 35.9497 43.135 36.2137 43.791 36.3687L43.777 36.3457C44.104 36.4087 44.435 36.4447 44.77 36.4447H44.83C44.867 36.4477 44.906 36.4497 44.946 36.4497C45.057 36.4507 45.183 36.4477 45.316 36.4437C45.495 36.4437 45.673 36.4407 45.85 36.4357C46.065 36.4377 46.284 36.4517 46.493 36.4887C46.977 36.5757 47.44 36.7267 47.933 36.5017C48.129 36.4117 48.546 36.1587 48.858 36.1577C49.038 36.1567 48.731 35.8777 48.382 35.9677C48.509 35.5557 48.362 35.0827 47.794 34.9687C47.469 34.9037 48.18 35.5357 47.584 36.0087C47.262 36.2637 46.664 35.8727 45.678 36.1117C45.373 36.1847 45.056 36.2157 44.768 36.2217C44.371 36.2127 43.98 36.1647 43.593 36.0897C42.936 35.8697 42.333 35.4267 42.153 35.2797C42.153 35.2797 41.905 35.0767 41.841 34.9927C41.534 34.5927 41.221 33.7977 40.879 33.2197C40.686 32.8957 39.983 32.1087 39.808 32.0477C39.835 32.0997 40.526 32.9527 40.761 33.4277C41.035 33.9877 41.296 34.5527 41.546 35.1227C41.797 35.6947 42.147 36.1937 42.601 36.6237C42.649 36.6697 42.693 36.7207 42.74 36.7687C42.647 36.7537 41.82 36.1267 41.145 34.8787C40.842 34.3187 40.488 33.7867 40.157 33.2417C40.102 33.1507 39.904 32.9517 39.827 32.9147C40.388 33.9297 40.833 34.9457 41.437 35.8817C41.337 35.8357 41.255 35.7787 41.174 35.7207C40.602 35.3067 39.239 33.4547 39.181 33.3767C38.929 33.0387 38.108 32.4767 37.968 32.5267C38.026 32.5597 38.868 33.3247 39.156 33.7967C39.405 34.2057 40.016 35.0567 40.068 35.1277C39.778 35.0017 38.247 33.9847 37.613 33.4047C37.326 33.1417 36.777 32.3647 36.765 32.3737C36.875 32.7337 37.079 33.0457 37.325 33.3927C37.221 33.3497 37.162 33.3307 37.107 33.3027C36.762 33.1267 36.419 32.9467 36.071 32.7747C35.761 32.6227 34.893 32.3997 34.756 32.4847C35.324 32.6527 35.806 32.9067 36.274 33.2047C36.244 33.2277 35.381 33.0077 35.027 32.9547C34.423 32.8617 33.211 32.9027 32.7 33.2647C33.44 32.9947 34.311 33.0987 34.808 33.1777C34.938 33.1987 35.066 33.2277 35.241 33.2627C35.123 33.3057 34.555 33.3427 34.766 33.7197C34.841 33.8527 35.163 33.8107 35.3 33.7197C35.8 33.3887 36.503 33.4677 37.276 33.9077C36.742 33.7927 36.195 33.9477 36.004 34.1007C36.56 33.9987 37.207 34.1107 37.792 34.2607C38.747 34.5067 38.944 34.7667 39.694 35.2387C40.289 35.6127 40.874 36.0007 41.465 36.3827C41.503 36.4067 41.535 36.4427 41.6 36.4987C41.235 36.3987 40.913 36.3027 40.587 36.2247C40.273 36.1497 39.462 35.9857 39.379 36.0907C40.181 36.2207 40.943 36.4067 41.692 36.7317C41.022 36.5637 39.441 36.5407 38.91 36.6197C38.91 36.6197 40.121 36.7447 40.178 36.7477C40.998 36.7857 41.788 36.9487 42.538 37.2847C42.59 37.3077 42.638 37.3387 42.688 37.3657C42.605 37.3637 42.528 37.3467 42.452 37.3297C41.851 37.1927 40.682 37.4897 40.473 37.7797C41.147 37.6817 42.22 37.7967 42.797 37.9937C43.114 38.1017 43.387 38.2557 43.62 38.4597L43.817 38.7067C43.877 38.7747 43.987 38.9067 44.112 39.0817C44.122 39.0977 44.132 39.1117 44.14 39.1287C44.184 39.2147 44.34 39.4277 44.424 39.5637C44.561 39.8037 44.689 40.0727 44.773 40.3487C44.819 40.5097 44.953 40.9547 44.995 41.1167C45.038 41.3257 45.056 41.4767 45.065 41.5707C45.078 41.8337 45.065 42.1227 45.002 42.4057C44.799 43.3197 45.282 43.8317 45.014 44.1437C44.52 44.7217 43.757 44.1237 43.852 44.4147C44.019 44.9217 44.565 45.0187 45.022 44.8717C44.944 45.1957 45.28 45.4517 45.27 45.2897C45.25 45.0057 45.508 44.6077 45.597 44.4227C45.819 43.9577 45.616 43.5497 45.485 43.1167C45.428 42.9297 45.398 42.7317 45.381 42.5367C45.375 42.3757 45.365 42.2137 45.354 42.0517C45.349 41.9297 45.345 41.8157 45.336 41.7147C45.333 41.6787 45.328 41.6437 45.322 41.6087L45.318 41.5557C45.288 41.1597 45.062 40.5397 44.918 40.1657V40.1637C44.746 39.7087 44.077 38.7907 44.035 38.7257C44.632 39.0257 45.051 39.5447 45.335 40.0997C45.738 40.8907 46.015 41.7217 46.1 42.6097C46.14 43.0297 46.267 44.6197 45.18 46.1737C45.722 46.0087 46.426 44.7537 46.564 44.4137C46.731 43.9987 46.838 43.5687 46.886 43.1267C47.047 41.6287 46.71 40.1177 45.741 38.8567C46.643 38.7967 47.441 38.6207 48.034 38.1897C48.463 37.8777 48.849 37.5097 49.186 37.0957C49.404 36.8257 49.804 35.7267 49.793 35.4837C49.665 35.6987 49.124 36.4467 48.971 36.6087ZM40.976 46.5847C40.062 46.0967 39.342 44.9577 39.001 42.3247C39.076 42.6407 39.693 43.6217 40.016 43.9847C40.106 44.0847 40.282 44.2207 40.429 44.3247L40.474 44.3577C40.501 44.3807 40.529 44.4037 40.559 44.4257C40.643 44.4877 40.742 44.5527 40.847 44.6227C40.983 44.7187 41.12 44.8127 41.26 44.9057C41.421 45.0247 41.58 45.1547 41.714 45.3007C42.024 45.6367 42.274 46.0147 42.804 46.0937C43.015 46.1247 43.507 46.1397 43.746 46.3077C43.884 46.4047 43.84 46.0037 43.513 45.8897C43.892 45.6137 44.103 45.1377 43.748 44.7337C43.544 44.5017 43.655 45.4177 42.876 45.4907C42.455 45.5297 42.266 44.8777 41.35 44.5407C41.067 44.4367 40.804 44.2907 40.58 44.1377C40.426 44.0217 40.26 43.9167 40.141 43.7677C39.82 43.3637 39.351 42.6687 39.295 42.4877C39.295 42.4877 39.014 41.8147 38.959 41.5787C38.852 41.1167 38.872 40.5927 38.842 40.0317C38.502 41.6587 38.865 44.0537 38.947 44.7797C38.479 43.6807 38.355 40.2897 38.207 39.6467C38.252 40.9127 38.207 41.5347 38.365 42.9807C38.07 42.0037 37.992 39.6037 37.885 39.0497C37.785 38.5337 37.423 37.6477 37.119 37.2557C37.262 37.7107 37.82 39.0157 37.674 39.8927C37.594 39.6147 37.524 39.3547 37.44 39.0977C37.098 38.0357 36.254 36.7557 34.654 36.4987C35.665 37.0657 36.456 37.8317 36.902 38.9157C36.736 38.7787 36.574 38.6397 36.404 38.5077C36.102 38.2737 35.774 38.0847 35.405 37.9677C35.225 37.9107 35.055 37.9177 34.885 38.0097C34.615 38.1577 34.599 38.5597 34.855 38.7357C35.049 38.8707 35.251 38.9987 35.425 39.1577C35.949 39.6377 36.337 40.2227 36.662 40.8497C36.959 41.4237 37.142 42.0427 37.321 42.6607C37.506 43.2997 37.681 43.9407 37.876 44.5767C38.047 45.1367 38.332 45.6387 38.697 46.0987C39.411 46.9977 40.367 47.4257 41.489 47.5267C42.208 47.5917 43.803 47.3757 44.228 46.9087C43.361 47.2217 41.818 47.0337 40.976 46.5847ZM44.755 29.6997C45.727 29.9147 46.623 30.3027 47.435 30.8827C48.322 31.5167 49.128 32.4067 49.815 33.4447C49.786 33.1187 49.445 32.2467 48.858 31.3307C48.403 30.6207 47.439 29.7067 46.468 29.2497C47.439 28.9267 48.514 27.8897 48.855 27.3497C49.145 26.8897 49.877 25.8537 50 24.7757C49.775 25.1757 48.492 26.9717 47.709 27.4457C47.545 27.5457 45.445 28.6777 43.694 28.1987C43.872 28.1797 44.042 28.1407 44.206 28.0887L44.279 28.0727L44.3 28.0677L44.343 28.0577C44.449 28.0347 45.243 27.7657 45.51 27.6297L45.532 27.6197L45.531 27.6187C45.724 27.5187 45.911 27.4087 46.091 27.2867L46.15 27.2467C46.19 27.2237 46.23 27.1997 46.27 27.1727C46.382 27.0987 46.505 27.0097 46.635 26.9147C46.812 26.7927 46.987 26.6697 47.16 26.5427C47.376 26.3997 47.604 26.2657 47.842 26.1647C48.391 25.9317 48.968 25.7847 49.284 25.2027C49.411 24.9707 49.63 24.4087 49.94 24.1957C50.118 24.0717 49.597 23.9737 49.32 24.3097C49.128 23.7707 48.616 23.3497 47.962 23.6107C47.589 23.7607 48.784 23.9707 48.556 24.8967C48.433 25.3957 47.536 25.3717 46.738 26.3037C46.491 26.5917 46.2 26.8407 45.918 27.0417C45.705 27.1797 44.556 27.7117 44.505 27.7347C44.121 27.8917 43.687 27.9827 43.287 28.0347C42.803 28.0617 41.957 27.9207 41.624 27.8197C40.968 27.6197 39.441 26.9797 38.775 26.3907C39.41 27.1187 40.779 27.8127 41.381 28.0377C42.163 28.3297 42.967 28.5407 43.796 28.6717C43.634 28.6987 43.47 28.7207 43.308 28.7137C42.928 28.6977 42.548 28.6697 42.168 28.6437C41.361 28.5897 40.575 28.4337 39.811 28.1677C39.654 28.1127 38.491 27.6617 37.105 26.8477C37.592 27.3607 38.854 28.1247 40.135 28.6067C39.171 28.6217 37.421 27.5827 37.412 27.5937C37.692 27.9527 38.117 28.1067 38.717 28.5647C37.332 28.6897 36.658 28.4627 36.202 28.3887C35.467 28.2707 34.694 28.1777 33.994 28.4297C34.75 28.3577 35.521 28.4357 36.247 28.6597C35.887 28.8297 35.487 28.8867 35.092 28.9347C34.329 29.0247 33.587 28.9927 32.819 29.0287C33.046 29.1617 34.057 29.3457 34.307 29.3657C33.845 29.4387 33.378 29.4777 32.911 29.4847C33.115 29.5547 33.309 29.6147 33.892 29.6047C33.109 29.8077 32.336 30.2987 31.767 30.6697C31.305 30.9697 30.767 31.2187 30.954 31.8677C31.074 32.2877 31.558 32.0307 31.682 31.8137C31.906 31.4237 31.86 31.1977 32.466 31.0387C32.326 31.2987 32.263 31.7277 32.246 31.8757C32.362 31.5507 32.756 30.7817 33.022 30.5607C33.197 30.4157 34.169 29.6947 34.766 29.4807C34.358 29.8757 33.92 30.3817 33.94 30.7847C34.431 29.9037 35.164 29.4677 36.124 29.1517C36.581 29.0007 37.73 28.8817 38.679 28.9797C38.362 29.1147 37.316 29.5217 37.105 29.7517C37.118 29.7667 38.806 29.0817 39.667 29.0267C40.233 28.9897 40.802 29.0797 41.369 29.1067C41.42 29.1087 41.471 29.1167 41.523 29.1217C40.943 29.3857 40.333 29.5667 39.883 30.0417C40.275 29.9557 40.603 29.7077 40.991 29.6157C40.928 29.6787 40.854 29.7247 40.792 29.7827C40.579 29.9827 40.019 30.5687 40.05 30.7027C40.083 30.6887 40.88 29.9527 41.256 29.7227C41.569 29.5307 41.896 29.3627 42.262 29.2967C42.54 29.2467 42.822 29.2007 43.146 29.3107C42.685 29.3407 42.293 29.4457 41.929 29.6487C41.274 30.0137 40.114 30.9707 40.107 30.9947C40.16 30.9827 40.574 30.8047 40.724 30.7087C41.04 30.5087 41.346 30.2957 41.661 30.0947C41.891 29.9477 42.737 29.6837 43.016 29.6547C43.611 29.5937 44.192 29.8367 44.789 29.9967L44.995 30.0787C45.226 30.1267 45.912 30.4547 46.465 30.8387C46.81 31.1187 47.125 31.4187 47.388 31.7537C47.539 31.9667 47.68 32.2137 47.772 32.4737C48.067 33.3177 48.786 33.5487 48.703 33.9177C48.549 34.5987 47.525 34.4107 47.767 34.6137C48.191 34.9687 48.749 34.8277 49.095 34.5207C49.195 34.8207 49.642 34.8997 49.545 34.7677C49.378 34.5397 49.407 34.1037 49.391 33.9137C49.351 33.4367 48.947 33.1787 48.596 32.8717C48.444 32.7377 48.312 32.5857 48.192 32.4307C48.102 32.2977 48.007 32.1667 47.911 32.0367C47.842 31.9367 47.777 31.8437 47.715 31.7637C47.693 31.7337 47.67 31.7077 47.646 31.6807L47.614 31.6377C47.644 31.6777 47.122 31.0657 46.927 30.9077C46.56 30.6127 45.871 30.2847 45.248 30.0507C45.001 29.9407 44.741 29.8487 44.469 29.7777L44.44 29.7707C44.278 29.7187 44.132 29.6757 44.01 29.6397C44.262 29.6207 44.51 29.6467 44.755 29.6997ZM48.911 22.2327C48.803 22.8057 48.356 23.3397 47.661 23.2367C47.263 23.1777 48.428 22.6897 48.054 21.8357C47.852 21.3737 46.958 21.6077 46.012 20.8807C45.719 20.6547 45.388 20.4797 45.072 20.3477C44.649 20.1937 44.208 20.0877 43.758 20.0147C42.858 19.9327 41.832 20.1767 41.524 20.2677L41.376 20.3027C40.989 20.4517 40.118 20.8247 39.737 21.1627C39.323 21.5327 38.463 22.2877 38.27 23.0227C38.311 22.1897 39.084 21.1877 39.721 20.7507C40.168 20.4437 40.644 20.1987 41.151 20.0097C41.237 19.9777 41.323 19.9417 41.403 19.8867C41.342 19.8977 40.458 20.0787 40.111 20.2617C39.533 20.5677 39.035 20.9747 38.606 21.4647C38.383 21.7197 37.996 22.2987 37.939 22.6217C37.959 22.3387 38.107 21.8887 38.259 21.6427C38.471 21.2987 39.125 20.6567 39.159 20.6077C38.734 20.7147 38.351 20.8997 38.03 21.2027C37.818 21.4027 37.66 21.6397 37.536 21.9007C37.319 22.3577 37.043 23.0117 37.088 23.6547C36.907 23.4737 36.954 22.7247 37.041 22.3777C37.14 21.9857 37.559 21.2237 37.597 21.1547C37.504 21.1887 37.443 21.2017 37.392 21.2307C36.737 21.6087 36.152 22.0587 35.777 22.7367C35.509 23.2197 35.267 23.7137 35.067 24.2287C35.012 24.3687 34.783 24.8437 34.654 24.9197C34.659 24.8637 34.825 24.2857 34.889 24.0227C35.057 23.3317 35.354 22.7027 35.782 22.1347C35.879 22.0047 36.008 21.8957 36.125 21.7807C36.179 21.7277 36.239 21.6807 36.287 21.6207C35.943 21.7417 34.888 22.5117 34.547 23.1507C34.71 22.5627 34.922 22.2667 35.267 21.9907C34.42 22.1567 33.789 22.7607 33.383 23.4737C33.099 23.9707 32.645 25.4617 32.608 25.4937C32.588 24.7797 32.85 24.1507 33.008 23.4867C32.958 23.5477 32.187 24.5107 32.036 24.8337C31.424 26.1467 31.048 27.8507 30.684 28.2017C30.896 27.2437 31.062 26.2767 31.457 25.3597C31.427 25.3897 31.392 25.4167 31.367 25.4517C30.594 26.5027 29.829 27.9457 29.285 28.7557C29.205 28.8757 28.875 29.4127 28.463 29.1097C28.323 29.0057 28.437 28.5797 28.49 28.4127C28.819 27.3657 30.076 25.9407 31.118 24.8887C31.166 24.8407 31.208 24.7867 31.242 24.7207C30.52 25.0057 29.804 25.2947 29.207 25.8097C29.384 25.4987 29.814 25.1317 30.247 24.8927L31.672 24.1127C32.208 23.8227 32.627 23.3967 33.038 22.9547C33.176 22.8067 33.331 22.6767 33.481 22.5417C33.501 22.5227 33.514 22.4997 33.548 22.4557C32.754 22.5887 31.993 22.7917 31.228 23.2497C31.648 22.7317 32.635 22.3797 33.321 22.2017C33.829 22.0707 34.339 21.9437 34.816 21.7217C35.204 21.5407 35.58 21.3327 35.954 21.1137C34.756 21.1557 33.56 21.1537 32.353 21.4367C32.438 21.3117 33.476 21.0627 33.902 21.0067C34.706 20.9017 36.347 20.7267 36.405 20.7017C35.918 20.6077 35.467 20.5717 35.008 20.5267C35.097 20.5117 35.978 20.4817 36.329 20.5047C36.656 20.5267 36.975 20.4947 37.294 20.4387C37.369 20.4257 37.444 20.3897 37.511 20.3487C38.218 19.9107 38.924 19.4687 39.629 19.0267C39.658 19.0087 39.681 18.9827 39.737 18.9347C38.618 19.2157 37.989 19.2567 37.169 19.3007C36.56 19.3327 35.646 19.4617 35.249 19.4227C35.561 19.2247 38.041 19.0627 38.619 18.9527C39.611 18.7647 40.67 18.4527 40.899 18.1387C40.527 18.3317 39.176 18.6287 38.324 18.6487C37.691 18.6637 37.058 18.6757 36.426 18.7117C35.586 18.7587 34.743 18.8267 33.918 19.0147C33.554 19.0987 33.201 19.2087 32.866 19.4147C33.39 18.8767 34.406 18.5947 34.807 18.5157C35.897 18.3007 37.013 18.3727 38.109 18.2117C39.239 18.0467 39.937 17.6837 40.639 17.2347C40.682 17.2067 40.772 17.1557 40.865 17.1027C41.639 16.5197 42.181 15.7447 42.374 15.1547C42.529 14.8147 42.666 14.4247 42.736 14.0187C42.965 12.7077 43.842 12.2687 43.671 11.7227C43.355 10.7127 42.081 11.1267 42.354 10.7897C42.833 10.2007 43.569 10.3417 44.066 10.7637C44.139 10.2957 44.698 10.1217 44.597 10.3327C44.423 10.6987 44.537 11.3527 44.55 11.6427C44.583 12.3667 44.112 12.8077 43.719 13.3157C43.549 13.5357 43.406 13.7827 43.281 14.0317C43.188 14.2427 43.074 14.4457 42.991 14.6617C42.066 17.0547 39.928 17.8817 39.479 18.0777V18.0797C39.591 18.0657 41.24 17.6137 41.953 17.1707C42.679 16.7197 43.321 16.3197 43.701 15.9447C44.048 15.6037 44.48 14.9497 44.861 14.3837C45.621 13.2537 45.816 12.0107 45.611 10.6897C45.545 10.2637 45.378 9.64069 45.097 9.12669C45.347 9.37569 45.731 10.0487 45.849 10.3737C46.179 11.2837 46.23 12.2187 46.096 13.1667C45.936 14.3007 45.496 15.3257 44.858 16.2707C44.406 16.9417 43.84 17.5087 43.223 18.0287C43.166 18.0757 42.896 18.2597 42.841 18.3087C43.633 18.0807 44.593 18.1567 45.221 18.2957C46.861 18.6597 48.277 19.4017 49.359 20.7157C49.63 21.0447 49.818 21.4977 49.952 21.9647C48.384 20.5457 47.205 20.0877 46.468 19.8367C45.799 19.6087 45.114 19.5647 44.425 19.6397C44.208 19.6627 43.993 19.6917 43.778 19.7247C44.836 19.8447 45.694 20.2537 45.812 20.3047C46.009 20.3827 46.204 20.4627 46.397 20.5467C46.635 20.6367 46.886 20.7137 47.139 20.7567C47.726 20.8567 48.328 20.8667 48.736 21.3637C48.899 21.5617 49.206 22.0617 49.55 22.1987C49.748 22.2787 49.243 22.4967 48.911 22.2327ZM43.066 8.60869C42.656 8.65369 42.069 8.33069 41.797 8.22369C41.117 7.95469 40.531 8.25669 39.908 8.46369C39.638 8.55269 39.352 8.60669 39.071 8.64369C38.837 8.66269 38.542 8.68269 38.368 8.71169C37.724 8.82169 36.619 9.01369 35.852 9.42069C35.163 9.78669 33.875 10.7467 33.373 11.3107C33.518 11.0507 33.675 10.8137 33.83 10.6157C34.933 9.20769 36.399 8.35569 38.076 7.81569C39.234 7.44369 40.416 7.31869 41.629 7.41569C42.27 7.46669 42.909 7.56469 43.831 7.83769C43.191 7.42069 42.082 7.02869 41.158 6.96669C38.836 6.81069 35.858 7.72469 34.203 8.87469C33.215 9.56069 32.201 10.6427 31.636 11.6237C33.126 7.19169 32.522 4.93069 30.997 2.88669C30.428 2.12369 29.54 1.30269 27.837 0.404692C29.669 1.90469 30.725 3.34469 30.967 5.44869C31.109 6.68269 31.074 9.16569 29.789 10.0427C29.806 9.97569 30.209 8.54869 30.267 7.86269C30.322 7.19969 30.221 6.55069 30.045 5.91169C29.895 5.36369 29.684 4.83769 29.389 4.35269L29.349 4.28669C29.328 4.24269 29.304 4.19869 29.278 4.15369C29.204 4.02869 29.115 3.89169 29.02 3.74669C28.898 3.54969 28.775 3.35369 28.649 3.16069C28.507 2.92069 28.377 2.66669 28.285 2.40469C28.073 1.79869 27.959 1.16569 27.331 0.797692C27.081 0.649692 26.468 0.387692 26.255 0.0426923C26.132 -0.157308 25.974 0.404692 26.327 0.720692C25.701 0.904692 25.18 1.44069 25.414 2.16069C25.548 2.57369 25.896 1.28569 26.919 1.57369C27.471 1.72969 27.361 2.70069 28.34 3.60769C28.643 3.88769 28.896 4.21569 29.098 4.53069C29.442 5.13069 29.686 5.77569 29.873 6.44069C30.052 7.07369 30.138 7.71569 30.009 8.37069C29.889 8.98469 29.683 9.56869 29.434 10.1427C29.244 10.5817 28.96 10.9367 28.595 11.2397C28.236 11.5367 27.881 11.8397 27.529 12.1447C26.954 12.6437 25.719 13.6907 25.441 15.1087C26.093 13.8437 27.251 13.0247 27.881 12.5817C28.343 12.2567 29.308 11.6017 29.356 11.5897C29.315 11.6597 28.809 12.3637 28.556 12.6457C28.168 13.0777 27.038 14.0217 26.682 14.8087C27.092 14.3867 27.523 14.0277 27.985 13.6927C28.731 13.1527 29.379 12.4997 29.942 11.7677C30.439 11.1207 31.109 9.56969 31.124 9.53469C31.147 9.57669 31.027 10.2807 30.924 10.5847C30.756 11.0847 30.561 11.5777 30.36 12.0677C30.144 12.5947 29.84 13.0727 29.435 13.4777C29.121 13.7927 28.791 14.0917 28.468 14.3977L28.302 14.5507C28.645 14.5107 28.868 14.2647 29.149 14.1207C29.023 14.3107 28.887 14.4847 28.744 14.6537C28.058 15.4637 27.379 16.2797 26.764 17.1437C26.326 17.7567 25.832 18.8837 25.792 19.1297C25.872 18.9757 26.497 17.9467 27.014 17.3227C27.633 16.5787 28.278 15.8567 28.914 15.1287C29.27 14.7227 29.596 14.2967 29.865 13.8287C29.889 13.7867 29.92 13.7487 29.949 13.7087C29.959 13.7787 29.951 13.8417 29.931 13.9007C29.719 14.5247 29.496 15.1437 29.177 15.7227C28.805 16.3527 27.669 17.4287 27.039 18.4027C27.694 17.7247 28.596 17.2777 28.749 17.1317C28.571 17.8857 28.068 18.5217 27.556 19.0267C27.28 19.2987 26.176 20.3367 26.161 20.4187C26.417 20.3407 28.245 18.8817 28.328 18.8027C28.315 18.8637 28.082 19.6847 27.96 20.0587C27.929 20.1557 27.863 20.2527 27.788 20.3237C27.586 20.5157 26.456 21.4787 26.161 21.9437C26.474 21.7407 27.204 21.1977 27.727 20.8597C27.718 20.9147 27.035 21.8497 26.51 22.3937C26.93 22.2307 27.185 21.8517 27.472 21.5637C27.362 22.1227 27.009 22.9207 26.842 23.3087C26.667 23.7157 25.969 25.2337 26.161 25.6137C26.221 25.7337 26.402 25.8817 26.536 25.8487C26.859 25.7657 26.958 24.8837 26.99 24.8147C27.021 24.9557 27.136 25.4447 27.136 25.4447C27.136 25.4447 27.179 24.4777 27.206 24.2847C27.254 23.9247 27.336 23.5667 27.42 23.2117C27.663 22.1887 28.381 20.1357 28.408 20.0947C28.5 20.3987 28.264 21.2147 28.562 21.7917C28.528 21.3177 28.605 19.7937 28.719 19.4267C28.745 19.8007 28.856 20.7687 28.975 21.0967C28.969 20.8727 28.994 18.9547 29.043 18.4787C29.097 17.9487 29.251 17.4487 29.491 16.9657C29.909 16.1257 30.333 15.2337 30.937 14.3817C30.512 15.5547 30.372 16.9977 30.483 18.2727C30.522 18.7127 30.52 19.1227 30.559 19.5957C30.708 19.2077 30.651 17.8647 30.676 17.3657C30.7 16.8877 30.747 16.4087 30.83 15.9387C31.002 14.9597 31.374 14.0447 31.79 13.1457C31.806 13.1097 31.832 13.0757 31.88 12.9987C31.826 13.2927 31.777 13.5377 31.735 13.7827C31.638 14.3327 31.568 14.8877 31.591 15.4467C31.601 15.6937 31.663 15.9387 31.709 16.1837C31.716 16.2197 31.866 14.5447 32.079 13.7037C32.223 14.1057 32.239 15.2247 32.329 15.7537C32.407 16.2037 32.539 16.6317 32.528 17.2307C32.922 16.5887 32.757 14.3007 32.762 13.3427C32.766 12.7797 33.509 11.5047 33.917 10.9917C34.12 10.7367 35.257 9.90169 35.891 9.61169C36.456 9.35369 37.068 9.22169 37.681 9.13569C38.061 9.09969 38.481 9.09769 38.893 9.16369C40.227 9.37769 40.953 8.68969 41.413 9.03069C42.269 9.66069 41.43 10.7337 41.847 10.5847C42.577 10.3247 42.698 9.57969 42.469 8.97069C42.941 9.05469 43.302 8.58269 43.066 8.60869ZM42.344 45.3137C42.27 45.2797 42.201 45.2557 42.129 45.2337C42.142 45.2647 42.148 45.3007 42.151 45.3367C42.371 45.4137 42.532 45.4687 42.548 45.4737C42.556 45.4537 42.562 45.4337 42.567 45.4157C42.493 45.3837 42.419 45.3487 42.344 45.3137ZM40.248 39.7327C40.203 39.7097 40.155 39.6927 40.109 39.6727C39.999 39.6247 39.896 39.6507 39.806 39.7197C39.678 39.8197 39.402 40.7127 39.612 41.4887C39.71 41.8487 39.953 42.1497 40.208 42.4277C40.567 42.8197 41.01 43.0177 41.548 42.9947C41.678 42.9887 41.808 42.9817 41.936 42.9887C42.443 43.0147 42.806 43.2487 42.996 43.7277L43.106 43.9877C43.229 43.8127 43.259 43.7367 43.264 43.6057C43.279 43.2447 43.013 42.9477 42.626 42.8937C42.426 42.8657 42.226 42.8497 42.03 42.8057C41.409 42.6677 40.864 42.3927 40.481 41.8697C40.12 41.3757 40.08 40.8647 40.402 40.2987C40.5 40.1257 40.532 39.8747 40.248 39.7327ZM35.83 47.2827C35.323 47.3827 34.012 47.9977 33.177 48.3477C32.649 48.5697 31.202 48.9577 29.78 48.4277C30.214 49.1277 31.457 49.2137 31.94 49.2147C33.5 49.2157 34.37 48.4847 35.854 48.0947C36.553 47.9117 37.266 47.9697 37.967 48.1507C38.69 48.3367 40.823 49.1277 41.88 48.6247C40.568 48.5167 38.292 47.5397 37.656 47.3247C37.128 47.1467 36.376 47.1747 35.83 47.2827ZM41.24 40.2867C41.225 40.3607 41.29 40.3967 41.319 40.4257C41.626 40.7337 41.774 41.1077 41.812 41.5367C41.828 41.7137 41.898 41.8827 42.012 42.0267C42.088 42.1207 42.182 42.1847 42.304 42.1867C42.518 42.1937 42.755 42.0237 42.842 41.8197C42.897 41.6907 42.876 41.5777 42.78 41.4857C42.72 41.4277 42.645 41.3797 42.57 41.3427C42.447 41.2827 42.32 41.2337 42.193 41.1837C41.946 41.0867 41.777 40.9107 41.677 40.6687C41.637 40.5697 41.612 40.4647 41.573 40.3657C41.543 40.2897 41.56 40.1427 41.451 40.1187C41.347 40.0967 41.258 40.1987 41.24 40.2867ZM29.654 48.8897C29.212 48.5707 28.338 47.7957 27.041 48.1137C26.695 48.1987 26.398 48.0597 26.433 47.1607C26.683 48.0837 27.276 47.8427 27.545 47.7707C28.419 47.5387 29.093 47.8667 29.394 47.9907C29.756 48.1407 31.014 48.5507 32.418 48.0947C32.8 47.9707 34.168 47.5347 34.168 46.9377L34.162 34.6387C34.162 34.2827 34.174 34.2827 33.633 34.0927C30.819 33.1007 29.538 31.6957 28.563 30.4877C27.473 29.1397 26.338 27.9217 25.295 24.5897C25.295 24.5897 25.204 24.2867 25.191 24.2497C25.081 23.9317 24.922 23.9197 24.807 24.2497C24.794 24.2857 24.703 24.5897 24.703 24.5897C23.66 27.9217 22.525 29.1397 21.436 30.4877C20.46 31.6957 19.179 33.1007 16.365 34.0927C15.824 34.2827 15.836 34.2827 15.836 34.6387L15.83 46.9377C15.83 47.5337 17.198 47.9707 17.58 48.0947C18.985 48.5507 20.242 48.1407 20.604 47.9907C20.905 47.8667 21.579 47.5387 22.454 47.7707C22.722 47.8427 23.316 48.0837 23.565 47.1607C23.6 48.0597 23.303 48.1987 22.957 48.1137C21.66 47.7957 20.786 48.5707 20.344 48.8897C19.805 49.2777 19.104 49.8387 17.904 49.7897C18.065 49.9117 18.968 50.1777 19.926 49.8197C20.222 49.7097 21.266 48.8897 22.374 48.8217C23.071 48.7787 23.851 48.9017 23.949 48.9117C23.961 48.8457 23.913 47.4117 23.906 46.7397C23.884 44.6197 23.876 42.2457 24.78 41.1577C24.95 40.9527 25.042 40.9477 25.218 41.1577C26.125 42.2437 26.114 44.6187 26.092 46.7397C26.085 47.4117 26.037 48.8457 26.049 48.9117C26.146 48.9017 26.928 48.7787 27.624 48.8217C28.731 48.8897 29.776 49.7097 30.072 49.8197C31.03 50.1777 31.932 49.9117 32.094 49.7897C30.894 49.8387 30.193 49.2777 29.654 48.8897ZM20.219 48.4277C18.797 48.9577 17.35 48.5687 16.822 48.3477C15.986 47.9967 14.676 47.3827 14.169 47.2817C13.624 47.1747 12.871 47.1457 12.343 47.3237C11.707 47.5387 9.431 48.5157 8.119 48.6237C9.176 49.1267 11.309 48.3357 12.032 48.1497C12.733 47.9687 13.446 47.9107 14.145 48.0937C15.63 48.4837 16.498 49.2147 18.058 49.2137C18.542 49.2137 19.785 49.1267 20.219 48.4277ZM41.493 24.4147L41.554 24.3947C41.988 24.2497 42.411 24.2807 42.836 24.4447C43.021 24.5147 43.221 24.5677 43.418 24.5847C43.665 24.6077 43.912 24.5677 44.069 24.3407C44.253 24.0737 44.199 23.5467 43.972 23.3177C43.85 23.1947 43.701 23.1437 43.542 23.2297C43.406 23.3047 43.279 23.3997 43.159 23.4997C43.032 23.6027 42.919 23.7247 42.797 23.8347C42.563 24.0447 42.287 24.1517 41.971 24.1337C41.793 24.1237 41.615 24.0937 41.439 24.0667C41.346 24.0527 41.229 24.0067 41.174 24.0967C41.003 24.3767 41.184 24.5007 41.494 24.4147H41.493ZM44.641 22.5537C44.406 22.3577 44.193 22.1317 43.99 21.9017C43.59 21.4497 43.123 21.1037 42.522 20.9817C41.722 20.8197 40.948 20.9187 40.212 21.2617C39.805 21.4517 39.491 21.7537 39.28 22.1547C39.164 22.3737 39.098 22.6047 39.12 22.8547C39.137 23.0297 39.205 23.1787 39.361 23.2647C39.493 23.3357 39.631 23.3997 39.775 23.4417C40.05 23.5237 40.17 23.4477 40.245 23.1647C40.281 23.0267 40.305 22.8847 40.343 22.7477C40.436 22.4007 40.628 22.1247 40.951 21.9527C41.214 21.8117 41.495 21.7357 41.795 21.7197C42.355 21.6887 42.878 21.8157 43.382 22.0457C43.937 22.2987 44.413 22.6627 44.864 23.0687C45 23.1907 45.161 23.2967 45.328 23.3707C45.598 23.4907 45.875 23.4747 46.131 23.3107C46.344 23.1757 46.444 22.9757 46.474 22.6937C46.264 22.8337 45.896 22.9657 45.659 22.9517C45.274 22.9287 44.929 22.7937 44.641 22.5537ZM41.731 12.1517C41.827 12.1047 42.115 11.9597 42.161 11.9287C41.981 11.7077 41.372 11.6137 41.051 11.8417C40.726 12.0717 40.611 12.4057 40.582 12.7877C40.553 13.1787 40.527 13.5717 40.462 13.9577C40.347 14.6277 40.102 15.2517 39.689 15.7997C39.371 16.2217 38.98 16.5497 38.472 16.7217C38.254 16.7947 38.032 16.8317 37.796 16.7997C37.547 16.7677 37.328 16.6707 37.117 16.5447C36.981 16.4647 36.851 16.3737 36.711 16.3007C36.485 16.1817 36.335 16.2207 36.201 16.4387C36.124 16.5657 36.071 16.7087 36.013 16.8467C35.928 17.0507 35.968 17.2387 36.095 17.4127C36.235 17.6047 36.428 17.7267 36.643 17.8167C37.136 18.0237 37.646 18.0417 38.163 17.9197C38.819 17.7657 39.356 17.3977 39.848 16.9627C40.603 16.2937 40.93 15.4547 40.823 14.4487C40.789 14.1367 40.759 13.8247 40.803 13.5087C40.888 12.9017 41.166 12.4307 41.731 12.1517ZM40.716 10.6887C40.28 11.1767 39.737 11.3337 39.1 11.2237C38.778 11.1687 38.48 11.0487 38.18 10.9277C37.397 10.6127 36.614 10.5977 35.841 10.9597C35.295 11.2157 34.821 11.5767 34.42 12.0227C33.969 12.5257 33.724 13.1197 33.742 13.8027C33.749 14.0847 33.812 14.3557 33.987 14.5887C34.081 14.7127 34.197 14.8167 34.358 14.8187C34.537 14.8217 34.718 14.8167 34.893 14.7817C35.213 14.7167 35.296 14.5717 35.22 14.2567C35.18 14.0897 35.13 13.9257 35.09 13.7587C34.971 13.2817 35.077 12.8537 35.375 12.4687C35.655 12.1077 36.017 11.8557 36.435 11.6837C37.187 11.3757 37.969 11.3277 38.763 11.4447C39.103 11.4957 39.435 11.5907 39.773 11.6567C40.205 11.7417 40.606 11.6927 40.914 11.3367C41.143 11.0737 41.184 10.6867 41.006 10.3767C40.906 10.4857 40.808 10.5847 40.716 10.6887ZM36.792 14.9747C36.886 15.0247 36.955 14.9557 37.019 14.8977C37.056 14.8637 37.091 14.8277 37.124 14.7907C37.48 14.3957 37.919 14.1727 38.452 14.1177C38.747 14.0877 39.028 13.9977 39.27 13.8157C39.443 13.6857 39.562 13.5227 39.567 13.2957C39.557 13.1057 39.507 12.9227 39.392 12.7747C39.289 12.6407 39.17 12.5087 39.031 12.4177C38.794 12.2647 38.575 12.3227 38.421 12.5597C38.356 12.6597 38.307 12.7737 38.266 12.8867C38.19 13.1017 38.128 13.3217 38.054 13.5377C37.951 13.8397 37.764 14.0807 37.486 14.2407C37.351 14.3187 37.201 14.3727 37.056 14.4337C36.951 14.4787 36.841 14.5137 36.736 14.5577C36.666 14.5877 36.61 14.6337 36.619 14.7187C36.63 14.8347 36.693 14.9227 36.792 14.9747ZM44.886 32.7287C44.758 32.7397 44.631 32.7637 44.504 32.7837C44.183 32.8347 43.891 32.7657 43.633 32.5687C43.536 32.4947 43.448 32.4097 43.353 32.3347C43.293 32.2867 43.243 32.1697 43.145 32.1907C43.046 32.2107 43.023 32.3357 43.015 32.3987C43 32.5357 43.159 32.5497 43.245 32.5737C43.641 32.6837 43.943 32.9157 44.197 33.2337C44.323 33.3937 44.489 33.5337 44.663 33.6377C44.929 33.7977 45.179 33.7157 45.341 33.4497C45.448 33.2747 45.488 33.0837 45.383 32.9017C45.275 32.7127 45.076 32.7117 44.886 32.7287ZM46.166 33.3007C46.266 33.5807 46.426 33.8107 46.713 33.9277C46.984 34.0357 47.224 33.9777 47.438 33.7297C47.33 33.6977 47.251 33.6727 47.17 33.6517C46.69 33.5237 46.36 33.2287 46.193 32.7657C46.118 32.5587 46.071 32.3407 46.031 32.1237C45.941 31.6387 45.741 31.2107 45.384 30.8667C44.94 30.4387 44.401 30.1747 43.808 30.0237C43.476 29.9387 43.139 29.9487 42.81 30.0587C42.602 30.1287 42.417 30.2337 42.28 30.4097C42.17 30.5507 42.133 30.7137 42.218 30.8707C42.288 31.0007 42.388 31.1197 42.491 31.2267C42.6 31.3397 42.711 31.3407 42.838 31.2487C42.913 31.1937 42.979 31.1287 43.047 31.0637C43.29 30.8337 43.572 30.7297 43.912 30.7777C44.31 30.8347 44.645 31.0177 44.946 31.2697C45.373 31.6267 45.68 32.0737 45.901 32.5777C46.003 32.8117 46.08 33.0587 46.166 33.3007ZM7.003 43.7267C7.193 43.2487 7.557 43.0137 8.063 42.9867C8.193 42.9807 8.323 42.9877 8.452 42.9937C8.99 43.0167 9.433 42.8187 9.792 42.4267C10.047 42.1487 10.29 41.8487 10.388 41.4867C10.598 40.7117 10.322 39.8177 10.194 39.7187C10.104 39.6497 10.002 39.6237 9.891 39.6717C9.845 39.6917 9.797 39.7087 9.752 39.7317C9.468 39.8737 9.5 40.1247 9.598 40.2977C9.92 40.8637 9.88 41.3747 9.519 41.8687C9.136 42.3917 8.591 42.6667 7.97 42.8047C7.775 42.8487 7.574 42.8647 7.375 42.8927C6.987 42.9467 6.721 43.2427 6.735 43.6047C6.741 43.7347 6.771 43.8117 6.895 43.9867C6.939 43.8817 6.972 43.8047 7.003 43.7267ZM40.749 25.6767C40.691 25.5687 40.629 25.4637 40.558 25.3657C40.431 25.1917 40.3 25.1587 40.11 25.2637C39.993 25.3297 39.886 25.4167 39.78 25.5037C39.604 25.6467 39.574 25.8337 39.633 26.0447C39.696 26.2717 39.823 26.4607 39.983 26.6267C40.258 26.9107 40.59 27.1087 40.969 27.2187C41.735 27.4417 42.489 27.3607 43.229 27.0987C43.734 26.9187 44.123 26.5877 44.399 26.1307C44.497 25.9657 44.569 25.7847 44.657 25.6137C44.758 25.4167 44.847 25.2107 44.972 25.0297C45.323 24.5197 45.809 24.2897 46.435 24.3767C46.525 24.3897 46.678 24.4517 46.792 24.4517C46.769 24.3897 46.699 24.2687 46.674 24.2307C46.375 23.7647 45.769 23.6847 45.353 24.0667C45.229 24.1807 45.129 24.3267 45.04 24.4717C44.793 24.8777 44.515 25.2577 44.167 25.5837C43.681 26.0387 43.13 26.3757 42.457 26.4677C41.702 26.5717 41.107 26.3427 40.749 25.6767ZM41.787 32.4647H41.701C41.388 32.4747 41.247 32.6167 41.232 32.9277C41.212 33.3527 41.384 33.7077 41.642 34.0277C42.032 34.5127 42.562 34.7937 43.138 34.9957C43.766 35.2157 44.365 35.1467 44.927 34.7827C44.999 34.7357 45.073 34.6917 45.149 34.6527C45.699 34.3647 46.222 34.3857 46.714 34.7837C46.772 34.8317 46.837 34.8727 46.924 34.9347C46.964 34.4707 46.66 34.1237 46.238 34.0957C46.046 34.0827 45.872 34.1357 45.698 34.2107C45.11 34.4637 44.502 34.6057 43.856 34.5267C43.472 34.4797 43.114 34.3657 42.794 34.1467C42.392 33.8717 42.168 33.5047 42.198 33.0067C42.2 32.9637 42.2 32.9207 42.198 32.8777C42.194 32.5637 42.098 32.4687 41.787 32.4647ZM43.72 41.3497C43.842 41.0007 43.905 40.6477 43.849 40.2777C43.758 39.6817 43.451 39.1977 43.057 38.7597C42.902 38.5867 42.711 38.4597 42.497 38.3667C42.297 38.2797 42.087 38.2407 41.867 38.2607C41.504 38.2927 41.34 38.4817 41.367 38.8397C41.37 38.8967 41.374 38.9537 41.387 39.0097C41.436 39.2207 41.53 39.2777 41.747 39.2317C41.789 39.2227 41.83 39.2107 41.871 39.1977C42.292 39.0697 42.635 39.1947 42.908 39.5237C42.998 39.6337 43.08 39.7537 43.147 39.8787C43.332 40.2257 43.41 40.6027 43.432 40.9907C43.458 41.4367 43.396 41.8727 43.292 42.3067C43.23 42.5687 43.226 42.8327 43.392 43.0697C43.552 43.2947 43.782 43.3657 44.059 43.2537C43.997 43.1837 43.953 43.1297 43.903 43.0817C43.567 42.7517 43.461 42.3527 43.553 41.9017C43.592 41.7147 43.657 41.5317 43.72 41.3497ZM14.78 14.2567C14.704 14.5727 14.786 14.7167 15.107 14.7817C15.281 14.8167 15.464 14.8217 15.642 14.8187C15.804 14.8167 15.919 14.7127 16.013 14.5887C16.187 14.3557 16.251 14.0847 16.258 13.8027C16.276 13.1197 16.031 12.5257 15.58 12.0227C15.18 11.5767 14.705 11.2157 14.159 10.9597C13.386 10.5967 12.603 10.6127 11.819 10.9277C11.519 11.0477 11.222 11.1677 10.899 11.2237C10.262 11.3337 9.719 11.1767 9.284 10.6887C9.192 10.5847 9.094 10.4857 8.994 10.3777C8.816 10.6867 8.857 11.0737 9.086 11.3367C9.394 11.6927 9.795 11.7417 10.227 11.6567C10.565 11.5907 10.897 11.4957 11.237 11.4447C12.031 11.3277 12.813 11.3757 13.564 11.6847C13.984 11.8557 14.345 12.1077 14.624 12.4687C14.922 12.8537 15.029 13.2817 14.911 13.7587C14.869 13.9257 14.819 14.0897 14.78 14.2567ZM10.152 16.9627C10.644 17.3977 11.182 17.7657 11.838 17.9197C12.355 18.0417 12.864 18.0237 13.358 17.8167C13.572 17.7267 13.765 17.6047 13.905 17.4127C14.032 17.2387 14.072 17.0507 13.987 16.8467C13.929 16.7087 13.877 16.5657 13.799 16.4387C13.665 16.2197 13.515 16.1817 13.289 16.3007C13.149 16.3737 13.019 16.4637 12.883 16.5447C12.673 16.6707 12.453 16.7677 12.203 16.7997C11.968 16.8307 11.746 16.7947 11.528 16.7217C11.02 16.5497 10.628 16.2217 10.312 15.7997C9.898 15.2517 9.653 14.6277 9.539 13.9577C9.473 13.5717 9.447 13.1787 9.418 12.7877C9.389 12.4057 9.274 12.0727 8.949 11.8417C8.628 11.6137 8.019 11.7077 7.839 11.9287C7.885 11.9597 8.173 12.1047 8.269 12.1517C8.835 12.4307 9.112 12.9017 9.197 13.5087C9.241 13.8247 9.211 14.1367 9.177 14.4487C9.07 15.4547 9.397 16.2937 10.152 16.9627ZM8.55 40.1177C8.44 40.1417 8.457 40.2877 8.427 40.3647C8.387 40.4637 8.364 40.5687 8.323 40.6677C8.223 40.9097 8.054 41.0857 7.807 41.1827C7.68 41.2327 7.553 41.2827 7.431 41.3427C7.355 41.3787 7.281 41.4267 7.22 41.4847C7.124 41.5767 7.103 41.6897 7.158 41.8187C7.245 42.0227 7.482 42.1927 7.697 42.1867C7.819 42.1837 7.912 42.1197 7.987 42.0257C8.102 41.8817 8.172 41.7127 8.188 41.5357C8.226 41.1067 8.374 40.7327 8.681 40.4247C8.71 40.3947 8.775 40.3597 8.761 40.2847C8.743 40.1967 8.653 40.0947 8.55 40.1177ZM23.474 5.22769C23.677 5.06769 23.9 4.93369 24.101 4.77269C24.261 4.64369 24.429 4.51069 24.549 4.34669C24.882 3.88969 24.74 3.33969 24.238 3.07769C24.127 3.01969 24.009 2.96569 23.84 2.97469C23.865 3.08769 23.895 3.16569 23.924 3.25869C24.118 3.88969 23.921 4.43069 23.447 4.86869C23.165 5.12969 22.836 5.31869 22.493 5.48669C22.123 5.66669 21.779 5.88269 21.48 6.16869C20.98 6.64669 20.715 7.23369 20.666 7.91569C20.635 8.35269 20.633 8.79169 20.756 9.21569C21.033 10.1667 21.639 10.8027 22.618 11.0507C22.753 11.0857 22.903 11.0807 23.045 11.0707C23.222 11.0567 23.378 10.9787 23.485 10.8307C23.582 10.6987 23.683 10.5657 23.756 10.4207C23.868 10.1987 23.812 10.0627 23.583 9.95269C23.486 9.90669 23.383 9.87469 23.281 9.83869C23.106 9.77669 22.926 9.72469 22.754 9.65169C22.094 9.37169 21.787 8.85069 21.753 8.15569C21.73 7.68669 21.865 7.25269 22.078 6.83969C22.414 6.19069 22.904 5.67369 23.474 5.22669V5.22769ZM25.697 7.08169C25.825 6.85369 25.908 6.61469 25.895 6.34669C25.882 6.08269 25.761 5.88869 25.517 5.79769C25.319 5.72269 25.113 5.63569 24.903 5.63269C24.707 5.62869 24.531 5.69669 24.366 5.75869C24.059 5.87369 23.978 6.11169 24.139 6.39469C24.209 6.51869 24.303 6.62969 24.393 6.74069C24.524 6.90169 24.669 7.05169 24.797 7.21469C25.027 7.50669 25.114 7.83869 25.024 8.20269C24.977 8.39669 24.904 8.58369 24.844 8.77469C24.774 8.99669 24.835 9.07869 25.07 9.08569C25.106 9.08669 25.143 9.08869 25.178 9.08369C25.308 9.06469 25.367 8.99269 25.349 8.86069C25.337 8.76969 25.312 8.67969 25.296 8.58769C25.219 8.16469 25.274 7.76269 25.504 7.39069C25.567 7.28769 25.637 7.18769 25.697 7.08069V7.08169ZM27.246 9.65169C27.074 9.72469 26.894 9.77669 26.719 9.83869C26.618 9.87469 26.514 9.90669 26.417 9.95269C26.188 10.0627 26.132 10.1987 26.244 10.4207C26.317 10.5657 26.418 10.6987 26.514 10.8307C26.622 10.9787 26.778 11.0567 26.955 11.0707C27.097 11.0807 27.247 11.0857 27.383 11.0507C28.361 10.8027 28.967 10.1667 29.244 9.21469C29.367 8.79169 29.365 8.35269 29.334 7.91569C29.284 7.23369 29.019 6.64569 28.52 6.16869C28.221 5.88269 27.877 5.66669 27.507 5.48669C27.164 5.31869 26.835 5.12969 26.553 4.86869C26.079 4.43069 25.881 3.88969 26.076 3.25869C26.105 3.16569 26.134 3.08869 26.16 2.97469C25.99 2.96569 25.873 3.01969 25.762 3.07769C25.26 3.33969 25.118 3.88969 25.451 4.34769C25.571 4.51069 25.738 4.64369 25.899 4.77269C26.1 4.93369 26.323 5.06769 26.526 5.22669C27.096 5.67369 27.586 6.19069 27.922 6.83969C28.135 7.25269 28.27 7.68669 28.247 8.15569C28.213 8.85069 27.907 9.37169 27.246 9.65169ZM6.854 32.1907C6.756 32.1707 6.706 32.2867 6.646 32.3347C6.551 32.4097 6.463 32.4947 6.366 32.5687C6.108 32.7657 5.816 32.8347 5.496 32.7837C5.368 32.7637 5.241 32.7397 5.113 32.7287C4.923 32.7117 4.724 32.7127 4.616 32.9017C4.511 33.0837 4.551 33.2747 4.658 33.4497C4.82 33.7157 5.07 33.7987 5.336 33.6377C5.51 33.5327 5.676 33.3937 5.802 33.2347C6.056 32.9147 6.358 32.6837 6.754 32.5737C6.84 32.5497 6.999 32.5357 6.984 32.3987C6.976 32.3357 6.953 32.2107 6.854 32.1907ZM3.287 34.7837C3.778 34.3857 4.302 34.3637 4.851 34.6517C4.927 34.6917 5.001 34.7357 5.073 34.7827C5.635 35.1467 6.234 35.2157 6.863 34.9957C7.438 34.7937 7.969 34.5127 8.359 34.0277C8.616 33.7077 8.789 33.3527 8.769 32.9277C8.753 32.6167 8.612 32.4737 8.299 32.4657H8.213C7.901 32.4687 7.806 32.5637 7.801 32.8777C7.801 32.9207 7.8 32.9637 7.802 33.0067C7.832 33.5047 7.608 33.8717 7.206 34.1467C6.886 34.3657 6.528 34.4797 6.144 34.5267C5.498 34.6067 4.89 34.4637 4.302 34.2107C4.128 34.1357 3.954 34.0827 3.762 34.0957C3.34 34.1237 3.036 34.4707 3.075 34.9357C3.163 34.8727 3.228 34.8317 3.287 34.7837ZM7.509 31.2267C7.612 31.1197 7.71 31.0007 7.78 30.8707C7.866 30.7137 7.829 30.5507 7.72 30.4097C7.582 30.2337 7.397 30.1287 7.189 30.0597C6.859 29.9497 6.523 29.9387 6.191 30.0237C5.598 30.1747 5.059 30.4387 4.615 30.8667C4.257 31.2107 4.058 31.6387 3.968 32.1237C3.928 32.3407 3.881 32.5587 3.806 32.7657C3.639 33.2287 3.308 33.5237 2.829 33.6517C2.749 33.6727 2.669 33.6977 2.561 33.7297C2.775 33.9777 3.015 34.0357 3.286 33.9277C3.574 33.8117 3.733 33.5817 3.833 33.3007C3.919 33.0587 3.995 32.8117 4.098 32.5777C4.319 32.0737 4.627 31.6277 5.053 31.2697C5.353 31.0177 5.689 30.8347 6.087 30.7777C6.427 30.7297 6.709 30.8327 6.952 31.0637C7.02 31.1277 7.086 31.1937 7.162 31.2487C7.288 31.3407 7.399 31.3397 7.509 31.2267ZM10.729 13.8157C10.971 13.9977 11.252 14.0877 11.547 14.1177C12.08 14.1727 12.519 14.3957 12.875 14.7907C12.908 14.8277 12.943 14.8637 12.98 14.8977C13.044 14.9557 13.114 15.0237 13.207 14.9747C13.306 14.9227 13.368 14.8347 13.38 14.7187C13.389 14.6337 13.333 14.5867 13.263 14.5587C13.158 14.5137 13.048 14.4787 12.943 14.4337C12.798 14.3737 12.649 14.3187 12.513 14.2407C12.236 14.0807 12.048 13.8407 11.945 13.5377C11.871 13.3217 11.809 13.1017 11.733 12.8877C11.693 12.7737 11.643 12.6597 11.578 12.5597C11.424 12.3227 11.205 12.2647 10.968 12.4177C10.828 12.5077 10.71 12.6407 10.607 12.7747C10.492 12.9227 10.443 13.1047 10.432 13.2947C10.437 13.5227 10.557 13.6847 10.73 13.8147L10.729 13.8157ZM5.941 43.2537C6.218 43.3657 6.449 43.2947 6.608 43.0697C6.774 42.8327 6.77 42.5697 6.708 42.3067C6.604 41.8727 6.542 41.4367 6.568 40.9907C6.59 40.6027 6.668 40.2257 6.853 39.8787C6.92 39.7537 7.001 39.6337 7.092 39.5237C7.365 39.1937 7.708 39.0697 8.129 39.1977C8.17 39.2107 8.211 39.2227 8.253 39.2317C8.47 39.2777 8.564 39.2217 8.613 39.0097C8.626 38.9537 8.63 38.8967 8.633 38.8397C8.66 38.4817 8.496 38.2927 8.133 38.2597C7.913 38.2407 7.703 38.2797 7.503 38.3667C7.289 38.4597 7.098 38.5867 6.943 38.7597C6.549 39.1977 6.243 39.6817 6.151 40.2777C6.095 40.6477 6.158 41.0007 6.28 41.3497C6.343 41.5317 6.408 41.7147 6.447 41.9027C6.539 42.3527 6.433 42.7527 6.097 43.0817C6.047 43.1297 6.003 43.1847 5.941 43.2537ZM6.581 24.5857C6.778 24.5677 6.978 24.5157 7.163 24.4437C7.588 24.2807 8.011 24.2497 8.445 24.3937C8.465 24.4007 8.485 24.4087 8.506 24.4147C8.814 24.5007 8.996 24.3767 8.825 24.0967C8.77 24.0067 8.653 24.0527 8.56 24.0667C8.384 24.0937 8.207 24.1237 8.028 24.1337C7.713 24.1517 7.437 24.0437 7.202 23.8347C7.079 23.7247 6.967 23.6027 6.84 23.4987C6.72 23.3987 6.593 23.3047 6.456 23.2287C6.298 23.1437 6.149 23.1947 6.027 23.3187C5.799 23.5467 5.746 24.0737 5.93 24.3407C6.087 24.5677 6.335 24.6077 6.581 24.5857ZM4.96 24.4717C4.871 24.3277 4.771 24.1817 4.647 24.0667C4.231 23.6847 3.625 23.7647 3.326 24.2307C3.301 24.2687 3.231 24.3907 3.208 24.4507C3.322 24.4507 3.475 24.3897 3.564 24.3767C4.191 24.2887 4.677 24.5197 5.028 25.0297C5.153 25.2107 5.242 25.4167 5.343 25.6137C5.431 25.7847 5.503 25.9657 5.602 26.1307C5.877 26.5877 6.266 26.9197 6.771 27.0987C7.511 27.3607 8.265 27.4417 9.031 27.2187C9.411 27.1087 9.741 26.9107 10.016 26.6267C10.178 26.4607 10.304 26.2717 10.367 26.0447C10.426 25.8347 10.396 25.6467 10.219 25.5027C10.114 25.4167 10.007 25.3297 9.889 25.2637C9.699 25.1587 9.569 25.1917 9.442 25.3657C9.371 25.4637 9.309 25.5687 9.252 25.6757C8.894 26.3417 8.298 26.5717 7.544 26.4677C6.87 26.3757 6.319 26.0387 5.834 25.5837C5.485 25.2577 5.208 24.8777 4.96 24.4717ZM10.638 23.2637C10.506 23.3357 10.368 23.3997 10.224 23.4417C9.949 23.5237 9.829 23.4477 9.754 23.1647C9.718 23.0267 9.694 22.8847 9.656 22.7477C9.563 22.4007 9.371 22.1247 9.048 21.9527C8.785 21.8117 8.504 21.7357 8.204 21.7197C7.645 21.6887 7.121 21.8157 6.617 22.0457C6.062 22.2987 5.586 22.6627 5.135 23.0687C4.999 23.1907 4.838 23.2967 4.671 23.3707C4.401 23.4907 4.123 23.4747 3.868 23.3107C3.655 23.1757 3.555 22.9757 3.525 22.6937C3.735 22.8337 4.103 22.9657 4.34 22.9517C4.725 22.9287 5.07 22.7937 5.358 22.5537C5.593 22.3577 5.806 22.1317 6.009 21.9017C6.409 21.4497 6.876 21.1037 7.478 20.9817C8.276 20.8197 9.051 20.9187 9.788 21.2617C10.194 21.4517 10.508 21.7537 10.719 22.1547C10.835 22.3737 10.901 22.6047 10.879 22.8547C10.862 23.0297 10.794 23.1777 10.638 23.2637Z" fill="#444746"/>
</svg>
